<?xml version="1.0" encoding="utf-8"?>
<!-- Generator: Adobe Illustrator 19.1.0, SVG Export Plug-In . SVG Version: 6.00 Build 0)  -->
<svg version="1.1" xmlns="http://www.w3.org/2000/svg" xmlns:xlink="http://www.w3.org/1999/xlink" x="0px" y="0px"
	 viewBox="0 0 54.1 100" style="enable-background:new 0 0 54.1 100;" xml:space="preserve">
<style type="text/css">
	.st0{display:none;}
	.st1{display:inline;}
	.st2{fill:#FFFFFF;stroke:#000000;stroke-width:12;stroke-miterlimit:10;}
	.st3{display:inline;fill:#CCCCCC;stroke:#CCCCCC;stroke-width:2;stroke-miterlimit:10;}
	.st4{display:inline;fill:#FFFFFF;stroke:#000000;stroke-width:4;stroke-miterlimit:10;}
	.st5{fill:#FFFFFF;}
	.st6{fill:none;stroke:#000000;stroke-width:5;stroke-miterlimit:10;}
	.st7{display:inline;fill:#FFFFFF;stroke:#4ABC9B;stroke-width:4;stroke-miterlimit:10;}
	.st8{fill:none;stroke:#FFFFFF;stroke-miterlimit:10;}
	.st9{stroke:#FFFFFF;stroke-miterlimit:10;}
	.st10{fill:#FFFFFF;stroke:#000000;stroke-width:5;stroke-miterlimit:10;}
	.st11{fill:#FFFFFF;stroke:#000000;stroke-width:4;stroke-miterlimit:10;}
	.st12{fill:#4ABC9B;}
</style>
<g id="guides" class="st0">
</g>
<g id="text" class="st0">
	<circle class="st7" cx="27" cy="52.3" r="72.6"/>
</g>
<g id="icons">
	<path d="M52.8,48.6c0.8,2.8,2.6,13.8-0.5,15.1c-1.5,0.5-1.8-5.3-3.4-9.7c-0.7-2-3.2-9.4-5.5-9.4c3.9,11,5.3,20.2,5.3,27.7
		c0,10.5-3.2,15.2-6,17.1c-0.9,0.6-1.8,1.1-2.7,1.5c0.5,0.9,1.5,1.2,3,1.7c2,0.7,5.2,2.1,4.4,3c-0.8,0.9-5-0.4-5,0.3
		c-0.1,0.7,2.2,2.9,1.6,3.8c-0.6,1-3-0.9-3-0.9c-1-0.8-2.1-1.5-2.8-1.7c-2.1-0.5-3.1,0.8-4.2,0.2c-0.8-0.9,1.2-2,1.3-4
		c0-0.5,0-1.1-0.1-1.6c-2.5,0-4.9-0.6-7.3-0.8h-1.8c-2.5,0.2-4.9,0.8-7.4,0.8c-0.1,0.5-0.1,1.1-0.1,1.6c0.1,1.9,2.1,3.1,1.3,4
		c-1.1,0.6-2-0.7-4.2-0.2C15,97.3,14,98,13,98.8c0,0-2.3,1.9-3,0.9c-0.5-0.9,1.7-3.2,1.6-3.8c-0.1-0.7-4.2,0.6-5-0.3
		c-0.8-0.8,2.4-2.3,4.4-3c1.5-0.5,2.5-0.8,3-1.7c-0.9-0.3-1.7-0.8-2.6-1.4c-2.7-1.9-6-6.6-6-17.1c0-7.5,1.3-16.8,5.3-27.7
		c-2.3,0-4.8,7.4-5.5,9.4c-1.6,4.4-1.8,10.2-3.4,9.7c-3.1-1.3-1.3-12.3-0.5-15.1C4.1,38.6,9,34.3,12,29.9c2.7-3.9,6.5-9.6,4.3-13.2
		c-0.8-1.5-1.1-3.2-1-4.4c0.2-2,1-4.3,1.8-6.1c1-2.2,3.3-5.7,8.2-6.1h3.5C33.7,0.4,36,3.9,37,6.1c0.8,1.8,1.6,4.1,1.8,6.1
		c0.1,1.2-0.1,2.9-1,4.4c-2.2,3.6,1.7,9.4,4.3,13.2l0,0C45.1,34.3,49.9,38.6,52.8,48.6z M40.6,85.8c8.1-7.9,1.9-30.9-0.3-39.2
		c-2.6-9.9-5.6-17.1-13.3-17.5c-7.7,0.4-10.7,7.6-13.3,17.5c-2.2,8.3-8.4,31.3-0.3,39.2c3.6,3.5,8.2,1.1,12.6,1h0.1h1.7H28
		C32.4,86.8,37,89.3,40.6,85.8z M28.7,13.6c0.4-0.1-0.3-1.2-1.4-1.3h0h-0.4h0c-1.1,0.1-1.8,1.2-1.4,1.3c0.5,0.1,1,0.8,1.1,1.6
		c0.1,0.3,0.2,0.7,0.4,0.9c0,0,0,0.1,0.2,0.1h0c0,0,0,0,0,0c0.1,0,0.2-0.1,0.2-0.1c0.2-0.2,0.3-0.6,0.4-0.9
		C27.8,14.3,28.2,13.7,28.7,13.6z M27.3,21c6.4,0.1,11.1-4.4,9.9-10.2c-0.3-1.6-0.9-4.6-2.7-4.5c-0.9,0.1-1.9,1-2.7,2.2
		c-0.7,1.1-1.4,3.8-1,5.1c0.1,0.5,1.1,0.8,0.9,1.5c-0.4,1.6-1.7,2.3-4,2.4h-1.3c-2.3-0.1-3.6-0.9-4-2.4c-0.2-0.7,0.8-1,0.9-1.5
		c0.4-1.3-0.2-4.1-1-5.1c-0.8-1.1-1.8-2.1-2.7-2.2c-1.8-0.1-2.4,2.9-2.7,4.5c-1.2,5.7,3.5,10.3,9.9,10.2L27.3,21z"/>
	<circle cx="34" cy="10.7" r="1.5"/>
	<circle cx="20" cy="10.7" r="1.5"/>
</g>
</svg>
