<?xml version="1.0" encoding="utf-8"?>
<!-- Generator: Adobe Illustrator 19.1.0, SVG Export Plug-In . SVG Version: 6.00 Build 0)  -->
<svg version="1.1" xmlns="http://www.w3.org/2000/svg" xmlns:xlink="http://www.w3.org/1999/xlink" x="0px" y="0px"
	 viewBox="0 0 120 120" style="enable-background:new 0 0 120 120;" xml:space="preserve">
<style type="text/css">
	.st0{display:none;}
	.st1{display:inline;}
	.st2{fill:#FFFFFF;stroke:#000000;stroke-width:12;stroke-miterlimit:10;}
	.st3{display:inline;fill:#CCCCCC;stroke:#CCCCCC;stroke-width:2;stroke-miterlimit:10;}
	.st4{display:inline;fill:#FFFFFF;stroke:#000000;stroke-width:4;stroke-miterlimit:10;}
	.st5{fill:#FFFFFF;}
	.st6{fill:none;stroke:#000000;stroke-width:5;stroke-miterlimit:10;}
	.st7{display:inline;fill:#FFFFFF;stroke:#4ABC9B;stroke-width:4;stroke-miterlimit:10;}
	.st8{fill:none;stroke:#FFFFFF;stroke-miterlimit:10;}
	.st9{stroke:#FFFFFF;stroke-miterlimit:10;}
	.st10{fill:#FFFFFF;stroke:#000000;stroke-width:5;stroke-miterlimit:10;}
	.st11{fill:#FFFFFF;stroke:#000000;stroke-width:4;stroke-miterlimit:10;}
	.st12{fill:#4ABC9B;}
</style>
<g id="guides" class="st0">
</g>
<g id="text" class="st0">
	<circle class="st7" cx="66" cy="60" r="72.6"/>
</g>
<g id="icons">
	<path d="M99.3,22.4H22.4c0-0.9-0.8-1.7-1.7-1.7c-0.9,0-1.7,0.8-1.7,1.7v75.2c0,0.9,0.8,1.7,1.7,1.7s1.7-0.8,1.7-1.7V80.5h76.9
		c0.9,0,1.7-0.8,1.7-1.7V24.1C101,23.2,100.2,22.4,99.3,22.4z M22.4,67l21-15.5l-21-15.5v-4.2l24.9,18.4c0.4,0.3,0.7,0.8,0.7,1.4
		c0,0.5-0.3,1.1-0.7,1.4L22.4,71.2V67z M97.6,66.8H57.1L43.3,77.1h-5.8l18.1-13.3c0.3-0.2,0.6-0.3,1-0.3h41V66.8z M97.6,60H53.7
		L30.6,77.1h-5.8l27.3-20.2c0.3-0.2,0.6-0.3,1-0.3h44.4V60z M97.6,46.3H53.2c-0.4,0-0.7-0.1-1-0.3L24.8,25.8h5.8l23.1,17.1h43.9
		V46.3z M97.6,39.5h-41c-0.4,0-0.7-0.1-1-0.3L37.5,25.8h5.8l13.9,10.2h40.4L97.6,39.5L97.6,39.5z"/>
</g>
</svg>
