<?xml version="1.0" encoding="utf-8"?>
<!-- Generator: Adobe Illustrator 19.1.0, SVG Export Plug-In . SVG Version: 6.00 Build 0)  -->
<svg version="1.1" xmlns="http://www.w3.org/2000/svg" xmlns:xlink="http://www.w3.org/1999/xlink" x="0px" y="0px"
	 viewBox="0 0 89.6 100" style="enable-background:new 0 0 89.6 100;" xml:space="preserve">
<style type="text/css">
	.st0{display:none;}
	.st1{display:inline;}
	.st2{fill:#FFFFFF;stroke:#000000;stroke-width:12;stroke-miterlimit:10;}
	.st3{display:inline;fill:#CCCCCC;stroke:#CCCCCC;stroke-width:2;stroke-miterlimit:10;}
	.st4{display:inline;fill:#FFFFFF;stroke:#000000;stroke-width:4;stroke-miterlimit:10;}
	.st5{fill:#FFFFFF;}
	.st6{fill:none;stroke:#000000;stroke-width:5;stroke-miterlimit:10;}
	.st7{display:inline;fill:#FFFFFF;stroke:#4ABC9B;stroke-width:4;stroke-miterlimit:10;}
	.st8{fill:none;stroke:#FFFFFF;stroke-miterlimit:10;}
	.st9{stroke:#FFFFFF;stroke-miterlimit:10;}
	.st10{fill:#FFFFFF;stroke:#000000;stroke-width:5;stroke-miterlimit:10;}
	.st11{fill:#FFFFFF;stroke:#000000;stroke-width:4;stroke-miterlimit:10;}
	.st12{fill:#4ABC9B;}
</style>
<g id="guides" class="st0">
</g>
<g id="text" class="st0">
	<circle class="st7" cx="44.8" cy="50" r="72.6"/>
</g>
<g id="icons">
	<g>
		<g>
			<path d="M16.8,24.3c3.5-1.2,7.2-1.7,10.7-2.7c4.1-1.2,7.7-3.2,10-7c-2.9,2.2-6.2,2.6-9.6,2.6c-2.5,0-5-0.2-7.6-0.1
				c-1.8,0-3.7,0.1-5.5,0.5c-5.2,1.1-9.7,6.8-9.5,12c0.4-0.2,0.7-0.4,1-0.6C9.9,27.3,13.2,25.5,16.8,24.3z"/>
			<path d="M14.1,16.4c4.1-1.9,8.3-2.6,12.9-1.4c3,0.8,6.2,0.5,8.7-1.1c-2.8-1.1-5.7-2.1-8.5-3.4c-2.8-1.3-5.5-1.3-8,0.4
				c-2.2,1.5-4.1,3.5-6.2,5.2c0.1,0.2,0.2,0.4,0.4,0.5C13.6,16.5,13.9,16.5,14.1,16.4z"/>
			<path d="M22.4,44.2c1.3-1.2,2.4-2.6,3.5-4c0.3-0.4,0.4-1.3,0.2-1.7c-0.7-1.5-1.7-3-2.6-4.6c-3.5,2-7.1,3.9-10.5,6
				c-1.8,1.1-3.6,2.5-5.2,4c-5,5-5.9,11.2-5.3,17.9c0.2,2,0.6,4,1,6.5C3.9,67.7,4,67.6,4,67.5c1.1-5.4,3.8-10.1,7.7-13.9
				C15.1,50.3,18.9,47.4,22.4,44.2z"/>
			<path d="M29.1,52.2c-1.1-1.9-1.2-2.1-3.1-0.6c-6.4,5.1-10.3,11.7-11.9,19.7c-0.1,0.7-0.3,1.4-0.4,2.1c-0.3-3.8,0.4-7.5,1.9-11
				c2.2-5.1,5.7-9.1,9.9-12.5c0.5-0.4,1-1.2,0.9-1.7c-0.2-1.1-0.8-2-1.3-3.3c-3.5,3.1-6.9,5.9-10.2,8.9c-3,2.8-4.8,6.4-5.4,10.4
				c-1.2,8.7,2,16.1,6.7,23.2c0-1,0.1-2.1,0.1-3.1c0-4.7,1.1-9.2,2.8-13.6c2-5.5,5.5-10,9.5-14.2C30,55,30.1,53.8,29.1,52.2z"/>
			<path d="M34.6,63.2c-2.3-1.4-3.7-3.2-3.6-6.1c-0.5,0.3-0.6,0.3-0.7,0.5c-4.8,5-7.8,10.9-9,17.7c-1,6.2-1,12.3,1.6,18.1
				c0.4,1,1.1,1.9,1.7,2.8c0.1-0.1,0.3-0.1,0.4-0.2c-1.6-5.9-0.7-11.6,1.2-17.2C28,73.1,31.1,68.1,34.6,63.2z"/>
			<path d="M54.8,12.4c4.6-2.6,8.9-4.8,14.2-4C64.4,3.5,58.2,5.1,54.8,12.4z"/>
			<path d="M35.1,12.2c-2-3.5-4.1-6.4-8.1-6.7c-2.4-0.2-4.3,1.1-5.8,2.5c2.4,0.4,4.8,0.5,7,1.2C30.4,9.8,32.5,11.1,35.1,12.2z"/>
			<path d="M63.5,17.1c-3.9,0-7.8-0.1-11.1-2.8c-0.2,0.2-0.4,0.5-0.6,0.7c1.2,1,2.4,2.1,3.7,3.1c3.2,2.4,6.9,3.6,10.8,4.4
				c6.1,1.2,12,3,17.3,6.5c0.3,0.2,0.6,0.3,0.9,0.4c-0.3-6.4-5.2-11.8-11.5-12.3C69.9,16.9,66.7,17.1,63.5,17.1z"/>
			<path d="M62.8,10.4c-2.9,1.3-5.8,2.4-8.6,3.5c2.6,1.6,5.9,1.8,9,1c4.2-1,8-0.4,11.8,1.2c0.5,0.2,1,0.4,1.6,0.5
				c0.1-0.2,0.2-0.3,0.3-0.5c-1.7-1.6-3.3-3.3-5.1-4.7C69,9.4,66,8.9,62.8,10.4z"/>
			<path d="M54.7,5.5c1.4-2,3.2-3.7,4.9-5.5c-0.3,0-0.7,0-1,0c-2.3,0.7-4.5,1.6-6.2,3.4c-2.1,2.3-2.7,6.9-1.3,8.9
				C52.1,10.1,53.2,7.7,54.7,5.5z"/>
			<path d="M38.5,12.5c0,0.1,0.2,0.1,0.3,0.1c1.7-4,0.7-8.1-2.9-10.5c-1.4-1-3.1-1.5-4.7-2.2c-0.3,0-0.7,0-1,0
				c0.4,0.5,0.8,0.9,1.2,1.4C34.8,4.5,37.6,7.9,38.5,12.5z"/>
			<path d="M58.9,57.3c0.1,2.6-1.2,4.5-3.6,5.9c6.9,10,12.3,20.3,9.7,33C72.9,88.6,68.6,61.7,58.9,57.3z"/>
			<path d="M66.2,34c-0.5,1-0.9,2-1.4,2.9c-1.4,2.4-1.4,3.6,0.7,5.5c1.6,1.5,3.4,2.9,5.2,4.3c7.2,5.6,13.4,11.8,15.3,21.1
				c0.2,0,0.3,0,0.5-0.1c0.3-2.1,0.8-4.2,0.9-6.3c0.6-7-0.6-13.5-6.1-18.4C76.8,39.3,71.5,36.7,66.2,34z"/>
			<path d="M64.7,44.7c-0.4,1-0.5,1.7-0.9,2.2c-1,1.5-0.3,2.3,0.8,3.3c2,1.8,4,3.7,5.8,5.9c4,5,6.1,10.7,5.8,17.2
				c-0.2-0.6-0.3-1.2-0.5-1.7c-1.1-3.3-2-6.7-3.4-9.8c-2-4.3-5.2-7.7-8.9-10.5c-1-0.8-1.8-1-2.4,0.5c-1.5,3.3-1.5,2.4,0.6,5.1
				c0.4,0.4,0.7,0.9,1.1,1.3c7.1,7.7,10.6,16.7,10.8,27.2c0,0.7,0.1,1.4,0.1,2.1c3.9-5.7,6.7-11.8,7-18.7c0.2-5-0.9-9.7-4.3-13.4
				C72.8,51.5,68.7,48.3,64.7,44.7z"/>
			<path d="M70.7,26.3c-4.1-1.4-8.2-2.8-12.1-4.4C52,19,47.7,14,45.7,7.1c-0.1-0.5-0.2-1-0.3-1.5c-0.1-0.4-0.2-0.9-0.4-1.6
				c-0.2,0.5-0.2,0.8-0.3,1c-1.7,8.7-6.9,14.4-15,17.6c-3.8,1.5-7.6,2.7-11.4,4c-8.7,3.1-15,8.6-17.5,17.8c-0.2,0.9-0.5,1.8-0.7,2.7
				c0,0.4,0,0.9,0,1.3c0.3-0.2,0.6-0.4,0.8-0.7c2.8-4.1,6.2-7.6,10.6-9.8c4.5-2.3,15.4-7.2,14.7-8c1.3,0,2.3,0,3.5,0
				c-0.3-0.9-0.5-1.5-0.7-2.2c1-0.1,1.9-0.2,2.9-0.3c0-0.9,0-1.7,0-2.6c0.9,0.2,1.6,0.4,2.2,0.6c0.7-1.2,1.2-2.2,2-3.1
				c1.3-1.5,1.8,1,3,0.6c0.4-0.8,0.8-1.6,1.3-2.5c0.8,0.9,1.3,1.8,2,2.4c2.6,2.4,2.4,2.3,4.8,0.1c0.8-0.7,1.3-1.6,2.1-2.5
				c0.5,1,1,1.8,1.5,2.7c0.8-0.5,1.6-1,2.5-1.6c0.6,1,1.4,1.9,1.8,2.9c0.7,2,2.1-0.1,3,0.6c-0.1,0.8-0.1,1.5-0.2,2.3
				c1.1,0.1,2,0.2,3,0.3c-0.2,0.8-0.4,1.4-0.7,2.3c1.2,0,2.2,0,3.4,0c-0.6,0.8,20.1,8.9,26,18.5c-0.2-3.6-1.2-6.8-2.9-9.9
				C83.2,32.1,77.5,28.6,70.7,26.3z"/>
			<path d="M54.4,66.9c-0.2,1.1-0.7,2.4-0.4,3.4c2.9,9.3,3.5,18.9,3,28.6c0,0.3,0.1,0.6,0.1,1.2c2-2.3,3.4-4.7,4.1-7.4
				c2.6-9.7-0.8-17.9-6.1-25.7C54.9,66.9,54.7,66.9,54.4,66.9z"/>
			<path d="M48.1,95.2c2.4-1.4,3.7-3,4.4-5.1c2-6.5,0.8-12.8-1.2-19.1C51.3,79.1,50.8,87.1,48.1,95.2z"/>
			<path d="M30.8,73.7c-3.2,6.4-4,13.1-1.8,20c0.7,2.3,2,4.3,3.7,6.2c0.1-0.4,0.2-0.5,0.2-0.6c0-0.4,0-0.8-0.1-1.2
				c-0.4-9.3,0.1-18.5,3-27.4c0.5-1.5,0.2-2.7-1.1-4.1C33.3,69.1,31.9,71.4,30.8,73.7z"/>
			<path d="M42.2,71.4c0.5,6.3,0,12.5,2.6,18.4c1.9-2.9,3.5-15,2.5-18.4C45.7,71.4,44.1,71.4,42.2,71.4z"/>
			<path d="M38.8,71.1c-0.2,0-0.4-0.1-0.6-0.1c-0.5,2.2-1,4.3-1.4,6.5c-0.6,4-0.9,8,0.3,12c0.7,2.4,2,4.3,4.6,5.8
				C39,87.1,38.5,79.2,38.8,71.1z"/>
		</g>
		<g>
			<g>
				<g>
					<path d="M54.1,38.6c0.4,0,0.7-0.3,0.7-0.7c0-0.4-0.3-0.7-0.7-0.7c-0.4,0-0.7,0.3-0.7,0.7C53.5,38.3,53.8,38.6,54.1,38.6z"/>
					<path d="M53.6,40.8l0.6,0c0.6,0,1.3-0.1,2.1-0.5c0.7-0.4,1.3-1,1.7-1.5c0.5-0.5,0.9-1,1.5-1.1l2.3-0.6l-2.2-0.9
						c-0.7-0.3-2.6-1-4.4-1c-1.5,0-2.6,0.4-3.4,1.3c-1.8,2.1-2.8,6.2-2.8,6.4l-0.1,0.5l-0.1,0c0,0.2-0.9,5.5-0.1,7.9l1-0.4
						c-0.6-1.8-0.1-5.9,0.1-7h0c0.9-0.1,1.2-0.8,1.4-1.3c0.2-0.4,0.4-0.9,1-1.4C52.6,40.9,53,40.8,53.6,40.8z M55.2,36.8
						c0.3,0,0.7,0.1,1,0.2c0.2,0.3,0.3,0.7,0.3,1.1c-0.3,0.3-0.6,0.6-1,0.9c-0.4,0.2-0.8,0.3-1.2,0.3l-0.6,0c-0.4,0-0.8,0.1-1.2,0.2
						c-0.1-0.1-0.2-0.3-0.2-0.4c0.3-0.5,0.5-1,0.8-1.3C53.5,37.1,54.2,36.8,55.2,36.8z"/>
				</g>
				<g>
					<path d="M35.5,37c-0.4,0-0.7,0.3-0.7,0.7c0,0.4,0.3,0.7,0.7,0.7c0.4,0,0.7-0.3,0.7-0.7C36.1,37.3,35.8,37,35.5,37z"/>
					<path d="M40,43.3c0-0.2-0.4-4.9-2.2-7.1c-0.8-0.9-1.9-1.3-3.4-1.3c-1.8,0-3.7,0.7-4.4,1l-2.2,0.9l2.3,0.6
						c0.6,0.2,1,0.6,1.5,1.1c0.4,0.5,1,1,1.7,1.5c0.7,0.4,1.5,0.5,2.1,0.5l0.7,0c0.6,0,1,0.1,1.4,0.4c0.5,0.5,0.6,1,0.6,1.6
						c0,0.5,0.1,1.4,1,1.6c0.2,1.1,0.8,5.3,0.1,7.1l1,0.4c0.7-2,0.2-5.9,0-7.3h0L40,43.3z M35.3,38.9c-0.5,0-0.9,0-1.2-0.3
						c-0.4-0.2-0.7-0.6-1-0.9c0-0.4,0.1-0.8,0.3-1.1c0.4,0,0.7-0.2,1-0.2c1,0,1.7,0.3,2.2,0.8c0.3,0.4,0.6,0.9,0.8,1.4
						c-0.1,0.1-0.1,0.3-0.2,0.4c-0.4-0.1-0.8-0.2-1.1-0.2L35.3,38.9z"/>
				</g>
			</g>
			<path d="M38.6,54.5c0,1.4,0.5,2.2,1.5,2.8c1.1,0.6,2.3,1.2,3.3,1.9c0.4,0.3,1.7,0.7,2.7-0.2c1.1-0.6,2.2-1.2,3.2-1.8
				c0.8-0.5,1.3-1.3,1.2-2.6C46.8,56.7,42.1,56.7,38.6,54.5z"/>
		</g>
		<path d="M43.8,59.3c0,1.8,0,3.1,0,3.6c-0.6,0.1-1.2,0.3-1.6,0.6c-0.3,0.2-2.2,0.6-2.7,0.5c-0.6-0.1-1-0.2-1.2,0.3
			c-0.1,0.3,0,0.6,0.4,0.8c0.3,0.3,0.6,0.4,1.1,0.4c0.4,0,0.9-0.1,1.7-0.3c1-0.3,1.6-0.5,2.1-0.7c1-0.3,1-0.4,2,0
			c0.5,0.2,1.1,0.4,2.1,0.7c1.7,0.5,2.3,0.3,2.9-0.2c0.5-0.3,0.5-0.6,0.4-0.8c-0.2-0.5-0.7-0.4-1.2-0.3c-0.5,0.1-2.4-0.2-2.7-0.5
			c-0.4-0.3-1-0.5-1.6-0.7c0-0.4,0-1.4,0-3.5"/>
	</g>
</g>
</svg>
