<?xml version="1.0" encoding="utf-8"?>
<!-- Generator: Adobe Illustrator 19.1.0, SVG Export Plug-In . SVG Version: 6.00 Build 0)  -->
<svg version="1.1" xmlns="http://www.w3.org/2000/svg" xmlns:xlink="http://www.w3.org/1999/xlink" x="0px" y="0px"
	 viewBox="0 0 120 120" style="enable-background:new 0 0 120 120;" xml:space="preserve">
<style type="text/css">
	.st0{display:none;}
	.st1{display:inline;}
	.st2{fill:#FFFFFF;stroke:#000000;stroke-width:12;stroke-miterlimit:10;}
	.st3{display:inline;fill:#CCCCCC;stroke:#CCCCCC;stroke-width:2;stroke-miterlimit:10;}
	.st4{display:inline;fill:#FFFFFF;stroke:#000000;stroke-width:4;stroke-miterlimit:10;}
	.st5{fill:#FFFFFF;}
	.st6{fill:none;stroke:#000000;stroke-width:5;stroke-miterlimit:10;}
	.st7{display:inline;fill:#FFFFFF;stroke:#4ABC9B;stroke-width:4;stroke-miterlimit:10;}
	.st8{fill:none;stroke:#FFFFFF;stroke-miterlimit:10;}
	.st9{stroke:#FFFFFF;stroke-miterlimit:10;}
	.st10{fill:#FFFFFF;stroke:#000000;stroke-width:5;stroke-miterlimit:10;}
	.st11{fill:#FFFFFF;stroke:#000000;stroke-width:4;stroke-miterlimit:10;}
	.st12{fill:#4ABC9B;}
</style>
<g id="guides" class="st0">
</g>
<g id="text" class="st0">
	<circle class="st7" cx="66" cy="60" r="72.6"/>
</g>
<g id="icons">
	<g>
		<path d="M27.5,27.2c4.9,2.5,8.1,5.8,8.1,20.5c0,0-1.2,3.5,6.7,5.5c0,0-0.9,1.4-7.2,3.5c0,0,0.3,9.5-6.4,17c0.9-0.1,2-0.2,3.2-0.2
			c5.2,0,7.9,1.6,10.3,3c2.2,1.3,4.1,2.4,8.1,2.4c4,0,5.9-1.1,8.1-2.4c2.4-1.4,5.1-3,10.3-3s7.9,1.6,10.3,3c2.2,1.3,4.1,2.4,8.1,2.4
			c3.5,0,5.4-0.8,7.2-1.9C88.1,72.9,80.2,65.1,74.3,51C59.3,15,17.7,22.1,27.5,27.2z"/>
		<path d="M14.2,88.2c5.2,0,7.9-1.6,10.3-3c2.2-1.3,4.1-2.4,8.1-2.4c4,0,5.9,1.1,8.1,2.4c2.4,1.4,5.1,3,10.3,3s7.9-1.6,10.3-3
			c2.2-1.3,4.1-2.4,8.1-2.4c4,0,5.9,1.1,8.1,2.4c2.4,1.4,5.1,3,10.3,3c5.2,0,7.9-1.6,10.3-3c2.2-1.3,4.1-2.4,8.1-2.4
			c1.2,0,2.2-1,2.2-2.2s-1-2.2-2.2-2.2c-5.2,0-7.9,1.6-10.3,3c-2.2,1.3-4.1,2.4-8.1,2.4c-4,0-5.9-1.1-8.1-2.4c-2.4-1.4-5.1-3-10.3-3
			c-5.2,0-7.9,1.6-10.3,3c-2.2,1.3-4.1,2.4-8.1,2.4c-4,0-5.9-1.1-8.1-2.4c-2.4-1.4-5.1-3-10.3-3c-5.2,0-7.9,1.6-10.3,3
			c-2.2,1.3-4.1,2.4-8.1,2.4c-1.2,0-2.2,1-2.2,2.2S13,88.2,14.2,88.2z"/>
		<path d="M105.8,87.3c-5.2,0-7.9,1.6-10.3,3c-2.2,1.3-4.1,2.4-8.1,2.4c-4,0-5.9-1.1-8.1-2.4c-2.4-1.4-5.1-3-10.3-3
			c-5.2,0-7.9,1.6-10.3,3c-2.2,1.3-4.1,2.4-8.1,2.4s-5.9-1.1-8.1-2.4c-2.4-1.4-5.1-3-10.3-3c-5.2,0-7.9,1.6-10.3,3
			c-2.2,1.3-4.1,2.4-8.1,2.4c-1.2,0-2.2,1-2.2,2.2c0,1.2,1,2.2,2.2,2.2c5.2,0,7.9-1.6,10.3-3c2.2-1.3,4.1-2.4,8.1-2.4
			c4,0,5.9,1.1,8.1,2.4c2.4,1.4,5.1,3,10.3,3s7.9-1.6,10.3-3c2.2-1.3,4.1-2.4,8.1-2.4c4,0,5.9,1.1,8.1,2.4c2.4,1.4,5.1,3,10.3,3
			s7.9-1.6,10.3-3c2.2-1.3,4.1-2.4,8.1-2.4c1.2,0,2.2-1,2.2-2.2C108,88.2,107,87.3,105.8,87.3z"/>
	</g>
</g>
</svg>
