<?xml version="1.0" encoding="utf-8"?>
<!-- Generator: Adobe Illustrator 19.1.0, SVG Export Plug-In . SVG Version: 6.00 Build 0)  -->
<svg version="1.1" xmlns="http://www.w3.org/2000/svg" xmlns:xlink="http://www.w3.org/1999/xlink" x="0px" y="0px"
	 viewBox="0 0 120 120" style="enable-background:new 0 0 120 120;" xml:space="preserve">
<style type="text/css">
	.st0{display:none;}
	.st1{display:inline;}
	.st2{fill:#FFFFFF;stroke:#000000;stroke-width:12;stroke-miterlimit:10;}
	.st3{display:inline;fill:#CCCCCC;stroke:#CCCCCC;stroke-width:2;stroke-miterlimit:10;}
	.st4{display:inline;fill:#FFFFFF;stroke:#000000;stroke-width:4;stroke-miterlimit:10;}
	.st5{fill:#FFFFFF;}
	.st6{fill:none;stroke:#000000;stroke-width:5;stroke-miterlimit:10;}
	.st7{display:inline;fill:#FFFFFF;stroke:#4ABC9B;stroke-width:4;stroke-miterlimit:10;}
	.st8{fill:none;stroke:#FFFFFF;stroke-miterlimit:10;}
	.st9{stroke:#FFFFFF;stroke-miterlimit:10;}
	.st10{fill:#FFFFFF;stroke:#000000;stroke-width:5;stroke-miterlimit:10;}
	.st11{fill:#FFFFFF;stroke:#000000;stroke-width:4;stroke-miterlimit:10;}
	.st12{fill:#4ABC9B;}
</style>
<g id="guides" class="st0">
</g>
<g id="text" class="st0">
	<circle class="st7" cx="66" cy="60" r="72.6"/>
</g>
<g id="icons">
	<g>
		<path d="M10.4,30.3v8.1c6,1.9,15.5,4,26.4,5.1v-4.8c0-0.9,0.7-1.6,1.6-1.6c0.9,0,1.6,0.7,1.6,1.6v5c3.7,0.3,7.5,0.4,11.4,0.4
			c2.1,0,4.1-0.1,6.1-0.2v-5.3c0-0.9,0.7-1.6,1.6-1.6s1.6,0.7,1.6,1.6v5.1C80.3,42.4,92,36.5,92,33.5c0-3.6-15.4-10.7-40.6-10.7
			C34,22.8,18.6,27.5,10.4,30.3z M13.8,34.5c0-0.9,0.7-1.6,1.6-1.6h8.1c0.9,0,1.6,0.7,1.6,1.6c0,0.9-0.7,1.6-1.6,1.6h-8.1
			C14.5,36.1,13.8,35.3,13.8,34.5z"/>
		<path d="M24,87.6c0,2.6,0.9,4.9,2.8,6.8c1.8,1.8,4.1,2.8,6.8,2.8c2.6,0,4.8-0.9,6.6-2.8c1.8-1.8,2.8-4.1,2.8-6.8
			c0-2.6-0.9-4.8-2.8-6.6c-1.8-1.8-4.1-2.8-6.6-2.8c-2.6,0-4.9,0.9-6.8,2.8C24.9,82.8,24,85,24,87.6z M29.5,87.6
			c0-1.1,0.4-2,1.2-2.8c0.8-0.8,1.7-1.2,2.8-1.2c1.1,0,2,0.4,2.8,1.2c0.8,0.8,1.2,1.7,1.2,2.8c0,1.1-0.4,2-1.2,2.8
			c-0.8,0.8-1.7,1.2-2.8,1.2c-1.1,0-2-0.4-2.8-1.2C29.9,89.6,29.5,88.7,29.5,87.6z"/>
		<path d="M81.1,87.8c0,2.6,0.9,4.8,2.8,6.6c1.8,1.8,4.1,2.8,6.6,2.8c2.6,0,4.9-0.9,6.8-2.8c1.8-1.8,2.8-4.1,2.8-6.6
			c0-2.6-0.9-4.9-2.8-6.7c-1.8-1.8-4.1-2.7-6.8-2.7c-2.6,0-4.8,0.9-6.6,2.7C82.1,82.9,81.1,85.2,81.1,87.8z M86.6,87.8
			c0-1.1,0.4-2,1.2-2.8c0.8-0.8,1.7-1.2,2.8-1.2c1.1,0,2,0.4,2.8,1.2c0.8,0.8,1.2,1.7,1.2,2.8c0,1.1-0.4,2-1.2,2.8
			c-0.8,0.8-1.7,1.2-2.8,1.2c-1.1,0-2-0.4-2.8-1.2C87,89.8,86.6,88.9,86.6,87.8z"/>
		<path d="M13.1,85.6h6.5c0.2-3.3,1.7-6.1,4.5-8.4c2.8-2.3,5.9-3.5,9.3-3.5c3.4,0,6.5,1.2,9.3,3.5c2.8,2.3,4.3,5.1,4.5,8.4h29.6
			c0.2-3.3,1.7-6,4.5-8.3c2.8-2.3,5.9-3.4,9.3-3.4c3.4,0,6.5,1.1,9.3,3.4c2.8,2.3,4.2,5.1,4.5,8.3h2.7c1.9,0,2.9-1,2.9-2.9v-5.5
			h-2.8l0-4.4c0,0,0-2,0-2.9h0v-1c0-3.4-3-6.2-6.8-6.2H84.2l-8.9-14c-0.8-1.4-2.6-2.2-4.1-2.2H28.9c-1.2,0-5.6-0.1-8.5,2.4
			c-3.3,2.9-3.7,5.3-4.2,7.6l-6.1,24.9C9.7,83.6,10.7,85.5,13.1,85.6z M61,61.4l0-7c0-1.5,0.7-2.2,2.2-2.2h7.2
			c0.9,0,1.6,0.2,2.1,1.1l4.8,8.4c0.1,0.2,0.2,0.4,0.2,0.7c0,0.8-0.4,1.2-1.2,1.2H63.2C61.7,63.6,61,62.8,61,61.4L61,61.4z M40.1,54
			c0-1.1,0.8-1.9,1.9-1.9h13.3c1.1,0,1.9,0.8,1.9,1.9v7.6c0,1.1-0.9,1.9-1.9,1.9H42c-1.1,0-1.9-0.9-1.9-1.9V54z M22.1,66.7
			c0-1.5,1.2-2.7,2.7-2.7c1.5,0,2.7,1.2,2.7,2.7c0,1.5-1.2,2.7-2.7,2.7C23.3,69.4,22.1,68.2,22.1,66.7z"/>
	</g>
</g>
</svg>
