<?xml version="1.0" encoding="utf-8"?>
<!-- Generator: Adobe Illustrator 19.1.0, SVG Export Plug-In . SVG Version: 6.00 Build 0)  -->
<svg version="1.1" xmlns="http://www.w3.org/2000/svg" xmlns:xlink="http://www.w3.org/1999/xlink" x="0px" y="0px"
	 viewBox="0 0 120 120" style="enable-background:new 0 0 120 120;" xml:space="preserve">
<style type="text/css">
	.st0{display:none;}
	.st1{display:inline;}
	.st2{fill:#FFFFFF;stroke:#000000;stroke-width:12;stroke-miterlimit:10;}
	.st3{display:inline;fill:#CCCCCC;stroke:#CCCCCC;stroke-width:2;stroke-miterlimit:10;}
	.st4{display:inline;fill:#FFFFFF;stroke:#000000;stroke-width:4;stroke-miterlimit:10;}
	.st5{fill:#FFFFFF;}
	.st6{fill:none;stroke:#000000;stroke-width:5;stroke-miterlimit:10;}
	.st7{display:inline;fill:#FFFFFF;stroke:#4ABC9B;stroke-width:4;stroke-miterlimit:10;}
	.st8{fill:none;stroke:#FFFFFF;stroke-miterlimit:10;}
	.st9{stroke:#FFFFFF;stroke-miterlimit:10;}
	.st10{fill:#FFFFFF;stroke:#000000;stroke-width:5;stroke-miterlimit:10;}
	.st11{fill:#FFFFFF;stroke:#000000;stroke-width:4;stroke-miterlimit:10;}
	.st12{fill:#4ABC9B;}
</style>
<g id="guides" class="st0">
</g>
<g id="text" class="st0">
	<circle class="st7" cx="66" cy="60" r="72.6"/>
</g>
<g id="icons">
	<g>
		<path d="M96.7,96.8C96.8,96.9,96.9,96.9,96.7,96.8C96.4,96.7,96.5,96.7,96.7,96.8c-4-2.1-13.1-0.7-13.2-6.2
			c0-4.1-0.1-8.3-0.1-12.4c0-4.3-0.1-8.5-0.1-12.8c0-1.5,1.4-1.8,2.6-2.8c3.9-2.9,7.4-6.2,10.1-10.1c4.7-6.6,5-13,3.9-20.5
			c-0.6-4.2-1.1-8.5-2-12.7c-0.4-1.9-1.6-1.7-3.6-1.8c-8.8-0.8-17.6-0.9-26.4-0.3c-1,0.1-4.6-0.2-4.8,0.8c-0.2,0.8-0.4,1.6-0.6,2.4
			c-1,4.4-1.9,8.8-2.5,13.2c-0.9,6.7,0.1,12.5,3.9,18.3c2,3.1,4.6,5.9,7.4,8.4c1.4,1.3,5.7,3.3,5.7,5.1c0,8.1,0,16.2,0,24.2
			c0,4.4-3,4.6-7,5.4c-2.1,0.4-6.5,0.6-7.4,3c-0.6,1.6,1.1,2.4,2.4,2.8c4.9,1.9,10.6,2.1,15.9,2c4-0.1,8.1-0.4,12-1.3
			C94.8,101.4,101.2,99.2,96.7,96.8z M62,39.1c0-0.4,0-0.7,0.1-1.1c0.4-4.8,1.2-9.6,2.3-14.4c0.2-1.1,0.5-2.2,0.8-3.3
			c0.3-1.1,4-0.8,5.2-0.9c3.5-0.2,6.9-0.3,10.4-0.2c3.2,0,6.3,0.1,9.5,0.3c1.2,0.1,2.4,0.2,3.6,0.3c1.8,0.2,1.8,0.1,2.1,1.9
			c1,5.6,2.4,11.6,2.4,17.3C86.2,39.1,74.1,39.1,62,39.1z"/>
		<path d="M40.8,50.7c0.1,0.2,6.9,0.8,7.9-3.2c0.9-3.7,2.9-6.8,2.9-6.8C36.2,40.8,40.8,50.7,40.8,50.7z"/>
		<path d="M41.8,91.7c-1.6,2.6-5,3.5-7.6,2c-2.6-1.6-3.5-5-2-7.6c1.6-2.6,5-3.5,7.6-2S43.4,89,41.8,91.7z"/>
		<path d="M35.9,81.3c-1.6,2.6-5,3.5-7.6,2c-2.6-1.5-3.5-5-2-7.6c1.6-2.6,5-3.5,7.6-2C36.5,75.3,37.4,78.7,35.9,81.3z"/>
		<path d="M47.8,81.4c-1.6,2.6-5,3.5-7.6,2c-2.6-1.6-3.5-5-2-7.6c1.6-2.6,5-3.5,7.6-2C48.5,75.4,49.4,78.8,47.8,81.4z"/>
		<path d="M53.8,71.2c-1.6,2.6-5,3.5-7.6,2s-3.5-5-2-7.6c1.6-2.6,5-3.5,7.6-2C54.5,65.2,55.4,68.6,53.8,71.2z"/>
		<path d="M35.9,60.7c-1.6,2.6-5,3.5-7.6,2c-2.6-1.6-3.5-5-2-7.6c1.6-2.6,5-3.5,7.6-2S37.5,58.1,35.9,60.7z"/>
		<path d="M47.9,60.9c-1.6,2.6-5,3.5-7.6,2c-2.6-1.6-3.5-5-2-7.6c1.6-2.6,5-3.5,7.6-2C48.5,54.8,49.4,58.2,47.9,60.9z"/>
		<path d="M41.9,71.1c-1.6,2.6-5,3.5-7.6,2c-2.6-1.6-3.5-5-2-7.6c1.6-2.6,5-3.5,7.6-2C42.5,65,43.4,68.4,41.9,71.1z"/>
		<path d="M29.9,70.9c-1.6,2.6-5,3.5-7.6,2s-3.5-5-2-7.6c1.6-2.6,5-3.5,7.6-2C30.6,64.9,31.5,68.3,29.9,70.9z"/>
		<path d="M37.6,53.6c-0.9,0-1.7-0.7-1.7-1.7c0-0.7-0.2-7.2-6.1-7.2c-0.9,0-1.7-0.7-1.7-1.7c0-0.9,0.7-1.7,1.7-1.7
			c7.4,0,9.4,6.9,9.4,10.5C39.3,52.8,38.5,53.6,37.6,53.6z"/>
	</g>
</g>
</svg>
