<?xml version="1.0" encoding="utf-8"?>
<!-- Generator: Adobe Illustrator 16.0.0, SVG Export Plug-In . SVG Version: 6.00 Build 0)  -->
<!DOCTYPE svg PUBLIC "-//W3C//DTD SVG 1.1//EN" "http://www.w3.org/Graphics/SVG/1.1/DTD/svg11.dtd">
<svg version="1.1" id="Layer_1" xmlns="http://www.w3.org/2000/svg" xmlns:xlink="http://www.w3.org/1999/xlink" x="0px" y="0px"
	 width="200px" height="34px" viewBox="0 0 200 34" enable-background="new 0 0 200 34" xml:space="preserve">
<text transform="matrix(1 0 0 1 34.2959 23.5527)" font-family="'Roboto-Medium'" font-size="19">brookwood capital</text>
<g>
	<g>
		<g>
			<path d="M27.747,13.026H8.889c-0.603,0-1.092-0.488-1.092-1.09s0.489-1.091,1.092-1.091h18.858c0.603,0,1.091,0.489,1.091,1.091
				S28.35,13.026,27.747,13.026z"/>
		</g>
		<g>
			<path d="M24.733,18.091h-12.83c-0.602,0-1.091-0.488-1.091-1.091s0.489-1.091,1.091-1.091h12.83c0.603,0,1.092,0.488,1.092,1.091
				S25.335,18.091,24.733,18.091z"/>
		</g>
		<g>
			<path d="M22.125,23.155h-7.613c-0.602,0-1.091-0.488-1.091-1.091s0.489-1.091,1.091-1.091h7.613c0.602,0,1.091,0.488,1.091,1.091
				S22.727,23.155,22.125,23.155z"/>
		</g>
	</g>
</g>
</svg>
