<?xml version="1.0" encoding="utf-8"?>
<!-- Generator: Adobe Illustrator 16.0.0, SVG Export Plug-In . SVG Version: 6.00 Build 0)  -->
<!DOCTYPE svg PUBLIC "-//W3C//DTD SVG 1.1//EN" "http://www.w3.org/Graphics/SVG/1.1/DTD/svg11.dtd">
<svg version="1.1" id="Layer_1" xmlns="http://www.w3.org/2000/svg" xmlns:xlink="http://www.w3.org/1999/xlink" x="0px" y="0px"
	 width="200px" height="58px" viewBox="0 0 200 58" enable-background="new 0 0 200 58" xml:space="preserve">
<text transform="matrix(1 0 0 1 20.6289 48.2188)" fill="#FFFFFF" font-family="'Roboto-Medium'" font-size="19">brookwood capital</text>
<g>
	<g>
		<g>
			<path fill="#FFFFFF" d="M116.301,9.552H83.7c-1.043,0-1.888-0.843-1.888-1.885c0-1.042,0.845-1.887,1.888-1.887h32.601
				c1.041,0,1.887,0.845,1.887,1.887C118.188,8.708,117.342,9.552,116.301,9.552z"/>
		</g>
		<g>
			<path fill="#FFFFFF" d="M111.091,18.307H88.91c-1.041,0-1.886-0.844-1.886-1.886s0.845-1.886,1.886-1.886h22.181
				c1.04,0,1.888,0.844,1.888,1.886S112.131,18.307,111.091,18.307z"/>
		</g>
		<g>
			<path fill="#FFFFFF" d="M106.58,27.062H93.419c-1.04,0-1.885-0.844-1.885-1.886c0-1.041,0.845-1.886,1.885-1.886h13.161
				c1.041,0,1.887,0.845,1.887,1.886C108.467,26.218,107.621,27.062,106.58,27.062z"/>
		</g>
	</g>
</g>
</svg>
