<svg xmlns="http://www.w3.org/2000/svg" xmlns:xlink="http://www.w3.org/1999/xlink" version="1.0" x="0px" y="0px" viewBox="0 0 100 100" overflow="" enable-background="new 0 0 100 100" xml:space="preserve"><path d="M87.661,58.913h-7.903v1.897h-9.391L59.142,31.138c2.508-2.458,4.066-5.882,4.066-9.672 c0-6.108-4.043-11.269-9.597-12.957V3.943C53.611,1.766,51.845,0,49.667,0c-2.177,0-3.943,1.766-3.943,3.943v4.565 c-5.555,1.688-9.597,6.85-9.597,12.957c0,3.79,1.559,7.213,4.066,9.671L28.967,60.811h-9.393v-1.897h-7.902 c-2.176,0-3.939,1.763-3.939,3.939c0,2.175,1.763,3.938,3.939,3.938h7.902v-2.038h7.899L21.747,79.89 c-1.262,3.378-0.344,7.028,2.039,9.432v10.67l13.279-35.239h10.23v4.933c0,1.325,1.077,2.403,2.404,2.403 c1.327,0,2.405-1.078,2.405-2.403v-4.933h10.167L75.55,99.991v-10.67c2.381-2.403,3.299-6.054,2.037-9.432l-5.728-15.138h7.898 v2.038h7.903c2.175,0,3.939-1.763,3.939-3.938C91.601,60.676,89.836,58.913,87.661,58.913z M49.667,15.046 c3.543,0,6.417,2.875,6.417,6.419c0,3.545-2.874,6.419-6.417,6.419c-3.546,0-6.419-2.874-6.419-6.419 C43.248,17.922,46.121,15.046,49.667,15.046z M52.104,60.811v-4.932c0-1.33-1.078-2.405-2.405-2.405 c-1.328,0-2.404,1.075-2.404,2.405v4.932h-8.744l9.75-25.872c0.449,0.045,0.903,0.069,1.365,0.069s0.917-0.024,1.366-0.069 l9.75,25.872H52.104z"></path></svg>