<svg xmlns="http://www.w3.org/2000/svg" xmlns:xlink="http://www.w3.org/1999/xlink" version="1.1" x="0px" y="0px" viewBox="0 0 90 90" enable-background="new 0 0 90 90" xml:space="preserve"><g><path d="M52.57,23.75V5.47c0-0.95-0.431-1.8-1.11-2.36c-0.15-0.12-0.31-0.23-0.479-0.33C50.55,2.55,50.05,2.41,49.52,2.41H6.83   c-1.68,0-3.05,1.37-3.05,3.06V81.7c0,1.689,1.37,3.05,3.05,3.05H49.52c1.69,0,3.051-1.36,3.051-3.05V59.28h-4.32v10.6H8.1V7.37   h40.15v16.38H52.57z M28.17,72.55c2.43,0,4.39,1.97,4.39,4.391c0,2.42-1.96,4.38-4.39,4.38c-2.42,0-4.38-1.96-4.38-4.38   C23.79,74.52,25.75,72.55,28.17,72.55z"></path></g><g><path d="M37.13,38.62v13.61c0,1.189-0.96,2.159-2.15,2.159H21.37c-1.19,0-2.16-0.97-2.16-2.159V38.62c0-1.19,0.97-2.16,2.16-2.16   h13.61C36.17,36.46,37.13,37.43,37.13,38.62z"></path></g><g><path d="M87.44,16.81v17.88c0,1.57-1.271,2.84-2.83,2.84H75.3v-7.99c0-3.19-2.6-5.79-5.79-5.79H63.9v-6.94   c0-1.56,1.27-2.83,2.83-2.83h17.88C86.17,13.98,87.44,15.25,87.44,16.81z"></path></g><g><path d="M73.3,29.54v18.5h-6.81c-2.29,0-4.15,1.87-4.15,4.16v5.08H45.56c-2.1,0-3.79-1.69-3.79-3.79V29.54   c0-2.09,1.69-3.79,3.79-3.79h23.95C71.6,25.75,73.3,27.45,73.3,29.54z"></path></g><g><path d="M82.25,52.2V65.81c0,1.19-0.96,2.16-2.15,2.16H66.49c-1.19,0-2.15-0.97-2.15-2.16V52.2c0-1.19,0.96-2.16,2.15-2.16H80.1   C81.29,50.04,82.25,51.01,82.25,52.2z"></path></g></svg>