<svg xmlns="http://www.w3.org/2000/svg" xmlns:xlink="http://www.w3.org/1999/xlink" version="1.1" viewBox="0 0 96 96" x="0px" y="0px"><path d="M4 96c-1.104 0-2-0.9-2-2 0-7.72 6.28-14 14-14 1.104 0 2 0.9 2 2s-0.896 2-2 2c-5.512 0-10 4.484-10 10 0 1.1-0.896 2-2 2z" fill="#000000"></path><path d="M68 96c-1.1 0-2-0.9-2-2 0-5.516-4.488-10-10-10-1.1 0-2-0.9-2-2s0.9-2 2-2c7.72 0 14 6.28 14 14 0 1.1-0.9 2-2 2z" fill="#000000"></path><path d="M36 96c-9.264 0-16.296-10.528-16.952-20.496-1.864-1.004-3.048-3.348-3.048-5.504v-4c0-1.428 0-4.94 4-5.804v-4.584c0-5.064 0.612-9.6 8-9.6h16c7.392 0 8 4.548 8 9.6v4.584c4 0.868 4 4.376 4 5.804v4c0 2.156-1.184 4.5-3.048 5.504-0.656 9.968-7.688 20.496-16.952 20.496zM28 50c-3.396 0-4 0.416-4 5.6v6.4c0 1.1-0.896 2-2 2-2 0-2 0.228-2 2v4c0 1.028 0.728 2 1 2 1.104 0 2 0.9 2 2 0 8.324 5.676 18 13 18s13-9.676 13-18c0-1.1 0.896-2 2-2 0.272 0 1-0.972 1-2v-4c0-1.772 0-2-2-2-1.104 0-2-0.9-2-2v-6.4c0-5.196-0.604-5.6-4-5.6h-16z" fill="#000000"></path><path d="M80 44c-1.1 0-2-0.9-2-2v-3c0-1.1 0.9-2 2-2s2 0.9 2 2v3c0 1.1-0.9 2-2 2z" fill="#000000"></path><path d="M80 23c-1.1 0-2-0.9-2-2v-3c0-1.1 0.9-2 2-2s2 0.9 2 2v3c0 1.1-0.9 2-2 2z" fill="#000000"></path><path d="M92 32h-3c-1.1 0-2-0.9-2-2s0.9-2 2-2h3c1.1 0 2 0.9 2 2s-0.9 2-2 2z" fill="#000000"></path><path d="M71 32h-3c-1.1 0-2-0.9-2-2s0.9-2 2-2h3c1.1 0 2 0.9 2 2s-0.9 2-2 2z" fill="#000000"></path><path d="M88.484 40.484c-0.512 0-1.024-0.196-1.416-0.584l-2.132-2.116c-0.776-0.78-0.776-2.056 0-2.828 0.78-0.78 2.052-0.78 2.828 0l2.132 2.116c0.776 0.78 0.776 2.056 0 2.828-0.388 0.388-0.9 0.584-1.412 0.584z" fill="#000000"></path><path d="M73.644 25.644c-0.512 0-1.024-0.2-1.416-0.584l-2.132-2.128c-0.776-0.772-0.776-2.048 0-2.828 0.78-0.772 2.052-0.772 2.828 0l2.132 2.128c0.78 0.78 0.78 2.052 0 2.828-0.388 0.388-0.9 0.584-1.412 0.584z" fill="#000000"></path><path d="M86.36 25.636c-0.512 0-1.024-0.2-1.416-0.584-0.78-0.776-0.78-2.052 0-2.828l2.124-2.12c0.776-0.772 2.052-0.772 2.828 0 0.78 0.78 0.78 2.060 0 2.828l-2.124 2.12c-0.388 0.388-0.9 0.584-1.412 0.584z" fill="#000000"></path><path d="M71.512 40.484c-0.512 0-1.024-0.196-1.416-0.584-0.776-0.772-0.776-2.048 0-2.828l2.124-2.116c0.78-0.78 2.048-0.78 2.828 0 0.78 0.772 0.78 2.048 0 2.828l-2.128 2.116c-0.384 0.388-0.896 0.584-1.408 0.584z" fill="#000000"></path><path d="M80 41c-6.072 0-11-4.928-11-11s4.928-11 11-11 11 4.928 11 11-4.928 11-11 11zM80 23c-3.86 0-7 3.14-7 7s3.14 7 7 7 7-3.14 7-7-3.14-7-7-7z" fill="#000000"></path><path d="M56 44c-1.1 0-2-0.9-2-2v-2c0-1.1 0.9-2 2-2s2 0.9 2 2v2c0 1.1-0.9 2-2 2z" fill="#000000"></path><path d="M56 30c-1.1 0-2-0.9-2-2v-2c0-1.1 0.9-2 2-2s2 0.9 2 2v2c0 1.1-0.9 2-2 2z" fill="#000000"></path><path d="M64 36h-2c-1.1 0-2-0.9-2-2s0.9-2 2-2h2c1.1 0 2 0.9 2 2s-0.9 2-2 2z" fill="#000000"></path><path d="M50 36h-2c-1.104 0-2-0.9-2-2s0.896-2 2-2h2c1.1 0 2 0.9 2 2s-0.9 2-2 2z" fill="#000000"></path><path d="M61.656 41.656c-0.512 0-1.024-0.196-1.416-0.584l-1.416-1.416c-0.78-0.78-0.78-2.048 0-2.828 0.776-0.78 2.048-0.78 2.828 0l1.416 1.416c0.776 0.78 0.776 2.056 0 2.828-0.388 0.388-0.9 0.584-1.412 0.584z" fill="#000000"></path><path d="M51.764 31.764c-0.516 0-1.024-0.204-1.416-0.584l-1.42-1.42c-0.78-0.772-0.78-2.048 0-2.828 0.78-0.772 2.048-0.772 2.832 0l1.42 1.42c0.78 0.78 0.78 2.048 0 2.828-0.392 0.392-0.908 0.584-1.416 0.584z" fill="#000000"></path><path d="M60.244 31.756c-0.516 0-1.028-0.204-1.416-0.584-0.78-0.78-0.78-2.048 0-2.828l1.416-1.416c0.776-0.78 2.048-0.78 2.828 0 0.78 0.772 0.78 2.048 0 2.828l-1.416 1.416c-0.392 0.392-0.904 0.584-1.412 0.584z" fill="#000000"></path><path d="M50.344 41.656c-0.512 0-1.024-0.196-1.416-0.584-0.78-0.772-0.78-2.048 0-2.828l1.416-1.416c0.78-0.78 2.048-0.78 2.828 0s0.78 2.048 0 2.828l-1.416 1.416c-0.388 0.388-0.9 0.584-1.412 0.584z" fill="#000000"></path><path d="M56 42c-4.416 0-8-3.584-8-8s3.584-8 8-8 8 3.584 8 8-3.584 8-8 8zM56 30c-2.204 0-4 1.792-4 4s1.796 4 4 4 4-1.792 4-4-1.796-4-4-4z" fill="#000000"></path><path d="M68 20c-1.1 0-2-0.9-2-2v-2c0-1.1 0.9-2 2-2s2 0.9 2 2v2c0 1.1-0.9 2-2 2z" fill="#000000"></path><path d="M68 6c-1.1 0-2-0.9-2-2v-2c0-1.1 0.9-2 2-2s2 0.9 2 2v2c0 1.1-0.9 2-2 2z" fill="#000000"></path><path d="M76 12h-2c-1.1 0-2-0.9-2-2s0.9-2 2-2h2c1.1 0 2 0.9 2 2s-0.9 2-2 2z" fill="#000000"></path><path d="M62 12h-2c-1.1 0-2-0.9-2-2s0.9-2 2-2h2c1.1 0 2 0.9 2 2s-0.9 2-2 2z" fill="#000000"></path><path d="M73.656 17.656c-0.512 0-1.024-0.196-1.416-0.584l-1.416-1.416c-0.78-0.78-0.78-2.048 0-2.828 0.776-0.78 2.048-0.78 2.828 0l1.416 1.416c0.776 0.78 0.776 2.056 0 2.828-0.388 0.388-0.9 0.584-1.412 0.584z" fill="#000000"></path><path d="M63.764 7.764c-0.516 0-1.024-0.204-1.416-0.584l-1.416-1.42c-0.78-0.772-0.78-2.048 0-2.828 0.776-0.772 2.048-0.772 2.828 0l1.42 1.42c0.78 0.78 0.78 2.048 0 2.828-0.392 0.392-0.908 0.584-1.416 0.584z" fill="#000000"></path><path d="M72.244 7.756c-0.516 0-1.028-0.204-1.416-0.584-0.78-0.78-0.78-2.048 0-2.828l1.416-1.416c0.776-0.78 2.048-0.78 2.828 0 0.78 0.772 0.78 2.048 0 2.828l-1.416 1.416c-0.392 0.392-0.904 0.584-1.412 0.584z" fill="#000000"></path><path d="M62.344 17.656c-0.512 0-1.024-0.196-1.416-0.584-0.78-0.772-0.78-2.048 0-2.828l1.416-1.416c0.78-0.78 2.048-0.78 2.828 0s0.78 2.048 0 2.828l-1.416 1.416c-0.388 0.388-0.9 0.584-1.412 0.584z" fill="#000000"></path><path d="M68 18c-4.416 0-8-3.584-8-8s3.584-8 8-8 8 3.584 8 8-3.584 8-8 8zM68 6c-2.204 0-4 1.792-4 4s1.796 4 4 4 4-1.792 4-4-1.796-4-4-4z" fill="#000000"></path></svg>