<svg xmlns="http://www.w3.org/2000/svg" xmlns:xlink="http://www.w3.org/1999/xlink" xmlns:sketch="http://www.bohemiancoding.com/sketch/ns" viewBox="0 0 232 235" version="1.1" x="0px" y="0px"><title>Rectangle 1</title><desc>Created with Sketch.</desc><g stroke="none" stroke-width="1" fill="none" fill-rule="evenodd" sketch:type="MSPage"><path d="M140.717114,48.7156584 L130.473101,52.6479666 L130.473101,52.6479666 L137.896317,57.8457581 L146.107765,58.8539972 L140.717114,48.7156584 Z M147.301254,46.1882438 L170,37.4750117 L170,37.4750117 L170,61.7875948 L170,61.7875948 L154.58949,59.8954221 L147.301254,46.1882438 Z M158.601323,67.440582 L170,68.8401636 L170,68.8401636 L170,80.3249991 L162.754562,75.2516891 L158.601323,67.440582 Z M150.119597,66.399157 L150.110186,66.3980015 L150.1242,66.4078145 L150.119597,66.399157 Z M170,88.8783754 L170,88.8704213 L170,88.8704213 L169.993262,88.8657034 L170,88.8783754 Z M170,103.788757 L170,131.211243 L157.3629,154.978171 L135.310945,170.419117 L108.092887,173.761074 L108.092887,173.761074 L82.9656608,164.115636 L64.9505423,144.10782 L64.9505423,144.10782 L58.3164677,117.5 L64.9505423,90.8921804 L82.9656608,70.8843643 L108.092887,61.2389259 L135.310945,64.5808831 L157.3629,80.0218288 L170,103.788757 Z M137.406134,42.4886098 L123.55657,47.8049592 L123.55657,47.8049592 L111.406623,39.2974752 L126.686347,22.3276231 L137.406134,42.4886098 Z M143.990274,39.9611951 L170,29.9769967 L170,29.9769967 L170,18 L177,18 L177,27.2899485 L185.892579,23.8764073 L188.401154,30.4114703 L177,34.7879634 L177,62.6470867 L177,62.6470867 L204.650994,66.0422019 L210.421281,55.1898696 L216.601915,58.4761705 L212.09312,66.95598 L221.236281,68.078619 L220.383195,75.0264421 L208.573015,73.5763343 L195.493339,98.1756273 L216.98934,113.227289 L227.729899,105.706669 L231.744934,111.440733 L223.091403,117.5 L231.744934,123.559267 L227.729899,129.293331 L216.98934,121.772711 L195.493339,136.824373 L208.573015,161.423666 L220.383195,159.973558 L221.236281,166.921381 L212.09312,168.04402 L216.601915,176.523829 L210.421281,179.81013 L204.650994,168.957798 L177,172.352913 L177,200.212037 L188.401154,204.58853 L185.892579,211.123593 L177,207.710052 L177,217 L170,217 L170,205.023003 L143.990274,195.038805 L131.670864,218.208244 L131.670864,218.208244 L140.391623,227.893629 L135.18961,232.577543 L128.173656,224.785537 L123.177074,234.182742 L116.99644,230.896441 L123.189139,219.249669 L105.629497,199.747712 L82.8074324,215.727894 L85.6671673,227.197664 L78.8750973,228.891118 L76.6654181,220.028579 L68.7336768,225.582444 L64.7186417,219.848379 L74.8514841,212.753287 L68.1119966,185.722679 L40.4601191,189.117903 L40.4601191,189.117903 L37.5247101,200.891185 L30.73264,199.197732 L33.0179932,190.031681 L23.7195964,191.17338 L22.866511,184.225557 L34.8319272,182.756389 L41.5718454,155.724054 L15.5646123,145.740812 L7.23463279,154.992192 L2.03261901,150.308278 L8.56461234,143.053764 L0.110073848,139.808371 L2.61864949,133.273308 L13.5817636,137.481653 L31.5733248,117.5 L13.5817636,97.518347 L2.61864949,101.726692 L0.110073848,95.1916293 L8.56461234,91.946236 L2.03261901,84.6917225 L7.23463279,80.0078082 L15.5646123,89.2591878 L41.5718454,79.2759464 L34.8319272,52.2436111 L22.866511,50.7744427 L23.7195964,43.8266197 L33.0179932,44.9683192 L30.73264,35.8022682 L37.5247101,34.108815 L40.4601191,45.8820974 L68.1119966,49.277321 L74.8514841,22.2467132 L64.7186417,15.1516206 L68.7336768,9.41755627 L76.6654181,14.9714213 L78.8750973,6.10888224 L85.6671673,7.80233551 L82.8074324,19.272106 L105.629497,35.2522879 L123.189139,15.7503307 L116.99644,4.10355942 L123.177074,0.817258476 L128.173656,10.2144632 L135.18961,2.42245724 L140.391623,7.10637148 L131.670864,16.7917556 L143.990274,39.9611951 Z M189.716213,140.86956 L177,149.773548 L177,165.300345 L201.130889,162.337444 L189.716213,140.86956 Z M192.182359,130.597324 L210.887276,117.5 L210.887276,117.5 L192.182359,104.402676 L185.218388,117.5 L192.182359,130.597324 Z M186.405232,134.642511 L177,141.228126 L177,132.956539 L181.254393,124.955191 L186.405232,134.642511 Z M177,102.043461 L177,93.771874 L177,93.771874 L186.405232,100.357489 L181.254393,110.044809 L177,102.043461 Z M177,116.953842 L177,118.046158 L177,118.046158 L177.290397,117.5 L177,116.953842 Z M122.590391,55.6738556 L122.012927,55.8955231 L123.097075,56.0286398 L122.590391,55.6738556 L122.590391,55.6738556 Z M115.67386,50.8308482 L107.213686,54.0784047 L99.0052988,53.0705416 L106.687534,44.5385552 L115.67386,50.8308482 L115.67386,50.8308482 Z M100.910408,40.4933679 L90.523573,52.0291166 L75.1119966,50.136813 L80.9934984,26.5473979 L100.910408,40.4933679 L100.910408,40.4933679 Z M177,85.2264519 L177,69.6996555 L177,69.6996555 L201.130889,72.6625561 L189.716213,94.13044 L177,85.2264519 L177,85.2264519 Z M42.2740531,53.1573893 L48.1559855,76.7485318 L62.6498324,71.1848652 L66.4058258,56.1203984 L42.2740531,53.1573893 L42.2740531,53.1573893 Z M73.4058258,56.9798903 L70.6276712,68.1224598 L78.8881553,64.9515571 L84.8055695,58.3796028 L73.4058258,56.9798903 L73.4058258,56.9798903 Z M93.2828684,59.4259444 L93.2936454,59.4218075 L93.2872953,59.4210278 L93.2828684,59.4259444 Z M20.5817636,94.8312988 L36.2830393,112.269332 L46.8671955,100.514436 L43.2780162,86.1190237 L20.5817636,94.8312988 L20.5817636,94.8312988 Z M49.8621563,83.5916091 L52.5170169,94.2396734 L58.5806975,87.5052739 L60.5825077,79.4764518 L49.8621563,83.5916091 L49.8621563,83.5916091 Z M68.5603465,76.4140464 L68.55769,76.4247012 L68.5709477,76.409977 L68.5603465,76.4140464 L68.5603465,76.4140464 Z M54.9735498,101.972753 L54.70932,103.032521 L54.5596907,102.43239 L54.9735498,101.972753 L54.9735498,101.972753 Z M48.9098692,108.707153 L51.1021723,117.5 L48.9098692,126.292847 L40.9927539,117.5 L48.9098692,108.707153 L48.9098692,108.707153 Z M36.2830393,122.730668 L46.8671955,134.485564 L43.2780162,148.880976 L20.5817636,140.168701 L36.2830393,122.730668 L36.2830393,122.730668 Z M42.2740531,181.842611 L66.4058258,178.879602 L62.6498324,163.815135 L48.1559855,158.251468 L42.2740531,181.842611 L42.2740531,181.842611 Z M49.8621563,151.408391 L60.5825077,155.523548 L58.5806975,147.494726 L52.5170169,140.760327 L49.8621563,151.408391 L49.8621563,151.408391 Z M54.5596907,132.56761 L54.9735498,133.027247 L54.70932,131.967479 L54.5596907,132.56761 L54.5596907,132.56761 Z M68.55769,158.575299 L68.5709477,158.590023 L68.5603465,158.585954 L68.55769,158.575299 L68.55769,158.575299 Z M70.6276712,166.87754 L78.8881553,170.048443 L84.8055695,176.620397 L73.4058258,178.02011 L70.6276712,166.87754 L70.6276712,166.87754 Z M75.1119966,184.863187 L90.523573,182.970883 L100.910408,194.506632 L80.9934984,208.452602 L75.1119966,184.863187 L75.1119966,184.863187 Z M126.686347,212.672377 L137.406134,192.51139 L123.55657,187.195041 L111.406623,195.702525 L126.686347,212.672377 L126.686347,212.672377 Z M106.687534,190.461445 L115.67386,184.169152 L107.213686,180.921595 L99.0052988,181.929458 L106.687534,190.461445 L106.687534,190.461445 Z M93.2936454,175.578192 L93.2828684,175.574056 L93.2872953,175.578972 L93.2936454,175.578192 Z M122.012927,179.104477 L123.097075,178.97136 L122.590391,179.326144 L122.012927,179.104477 Z M130.473101,182.352033 L137.896317,177.154242 L146.107765,176.146003 L140.717114,186.284342 L130.473101,182.352033 L130.473101,182.352033 Z M147.301254,188.811756 L154.58949,175.104578 L170,173.212405 L170,197.524988 L147.301254,188.811756 L147.301254,188.811756 Z M170,166.159836 L170,154.675001 L162.754562,159.748311 L158.601323,167.559418 L170,166.159836 L170,166.159836 Z M150.119597,168.600843 L150.1242,168.592186 L150.110186,168.601999 L150.119597,168.600843 L150.119597,168.600843 Z M169.993262,146.134297 L170,146.121625 L170,146.129579 L169.993262,146.134297 L169.993262,146.134297 Z" fill="#000000" sketch:type="MSShapeGroup"></path></g></svg>