<svg xmlns="http://www.w3.org/2000/svg" xmlns:xlink="http://www.w3.org/1999/xlink" version="1.1" width="96" height="96" viewBox="4.8 -9.6 96.0 129.6">
<path d="M48 84.572c-12.668 0-20.856-6.948-20.856-17.712 0-1.1 0.896-2 2-2s2 0.9 2 2c0 10.108 8.708 13.712 16.856 13.712s16.856-3.592 16.856-13.712c0-8.308-4.32-10.436-14.752-15.584l-5.988-2.968c-10.584-5.22-16.976-8.372-16.976-19.168 0-10.672 8.384-17.844 20.856-17.844 12.508 0 20.596 7.004 20.596 17.844 0 1.104-0.9 2-2 2s-2-0.896-2-2c0-10.204-8.572-13.844-16.596-13.844-7.776 0-16.856 3.624-16.856 13.844 0 8.308 4.316 10.436 14.748 15.584l5.984 2.964c10.592 5.22 16.984 8.372 16.984 19.168 0.004 10.76-8.184 17.716-20.856 17.716z" fill="#000000"/>
	<path d="M47.832 14c-1.104 0-2-0.896-2-2v-8c0-1.104 0.896-2 2-2s2 0.896 2 2v8c0 1.104-0.896 2-2 2z" fill="#000000"/>
	<path d="M47.832 94c-1.104 0-2-0.9-2-2v-8c0-1.1 0.896-2 2-2s2 0.9 2 2v8c0 1.1-0.896 2-2 2z" fill="#000000"/>
</svg>