<svg xmlns="http://www.w3.org/2000/svg" xmlns:xlink="http://www.w3.org/1999/xlink" version="1.1" x="0px" y="0px" viewBox="0 0 100 100" enable-background="new 0 0 100 100" xml:space="preserve"><path d="M49.6,35h21.7c1.7,3,5,5,8.7,5c5.5,0,10-4.5,10-10c0-5.5-4.5-10-10-10c-3.7,0-6.9,2-8.7,5H38.9  C43.3,27.1,46.8,30.8,49.6,35z M80,24c3.3,0,6,2.7,6,6s-2.7,6-6,6s-6-2.7-6-6S76.7,24,80,24z M80,60c-3.7,0-6.9,2-8.7,5H70  c-6.4,0-10.2-6.5-15.5-17.2C49.1,37.1,43.1,25,30,25h-1.3c-1.7-3-5-5-8.7-5c-5.5,0-10,4.5-10,10c0,5.5,4.5,10,10,10  c3.7,0,6.9-2,8.7-5H30c6.4,0,10.2,6.5,15.5,17.2C50.9,62.9,56.9,75,70,75h1.3c1.7,3,5,5,8.7,5c5.5,0,10-4.5,10-10  C90,64.5,85.5,60,80,60z M20,36c-3.3,0-6-2.7-6-6s2.7-6,6-6s6,2.7,6,6S23.3,36,20,36z M80,76c-3.3,0-6-2.7-6-6s2.7-6,6-6s6,2.7,6,6  S83.3,76,80,76z"></path></svg>