<svg xmlns="http://www.w3.org/2000/svg" xmlns:xlink="http://www.w3.org/1999/xlink" version="1.1" id="Layer_1" x="0px" y="0px" width="100px" height="100px" viewBox="5.0 -10.0 100.0 135.0" enable-background="new 0 0 100 100" xml:space="preserve">
<g>
	<path d="M94.619,23.576c-0.242-0.194-0.559-0.266-0.855-0.198l-16.818,3.777c-0.281,0.062-0.521,0.24-0.662,0.491   c-0.141,0.249-0.169,0.546-0.079,0.818l0.302,0.903H64.015c-1.303-0.8-7.277-4.396-12.66-6.357c-1.171-0.425-2.613-0.65-4.174-0.65   c-2.703,0-5.417,0.674-7.263,1.805c-0.834,0.516-1.912,1.246-3.164,2.135c-0.845-0.075-1.666-0.128-2.473-0.128   c-3.29,0-6.679,0.649-10.453,2.008c0.007-0.185-0.019-0.367-0.111-0.531c-0.141-0.25-0.381-0.43-0.661-0.491l-16.82-3.778   c-0.3-0.07-0.615,0.006-0.856,0.198C5.14,23.769,5,24.06,5,24.369l0.001,31.786c0,0.27,0.107,0.527,0.297,0.717   c0.19,0.19,0.448,0.297,0.717,0.297c0,0,0,0,0.001,0l7.479-0.003c0.436,0,0.823-0.281,0.96-0.694l0.087-0.262   c0.923,0.448,2.095,1.015,3.396,1.636c-0.163,1.774,0.581,3.59,2.144,4.687c0.869,0.607,1.885,0.927,2.939,0.927   c0.501,0,0.985-0.095,1.454-0.233c0.009,0.237,0.013,0.475,0.056,0.713c0.237,1.351,0.988,2.526,2.112,3.315   c0.868,0.61,1.885,0.932,2.94,0.932c0.569,0,1.112-0.128,1.637-0.307c0.006,0.263,0.015,0.527,0.061,0.789   c0.238,1.347,0.987,2.523,2.111,3.312c0.869,0.61,1.886,0.931,2.944,0.931c0.57,0,1.115-0.127,1.64-0.305   c0.036,1.584,0.779,3.13,2.167,4.107c0.868,0.606,1.884,0.927,2.939,0.927c1.678,0,3.251-0.82,4.208-2.192l3.233-4.621   c0.649,0.455,1.069,0.749,1.069,0.749l2.769,1.936c0.87,0.61,1.886,0.932,2.944,0.932c1.673,0,3.243-0.82,4.203-2.192   c0.677-0.965,0.998-2.106,0.923-3.268c2.174,1.033,4.999,0.306,6.405-1.695c0.677-0.967,0.974-2.084,0.924-3.172   c2.216,1.239,5.25,0.554,6.713-1.538c0.693-0.99,0.985-2.147,0.908-3.275c2.161,0.946,4.9,0.193,6.27-1.764   c0.628-0.899,0.918-1.933,0.91-2.955h0.354l0.63,1.886c0.137,0.413,0.523,0.694,0.961,0.694h7.48c0.561,0,1.014-0.455,1.014-1.015   V24.367C95,24.059,94.86,23.768,94.619,23.576z M92.971,55.137h-5.735l-0.187-0.562l-0.334-1.002L78.98,30.381l-0.337-1.014   l-0.16-0.479l14.487-3.255V55.137z M84.13,52.559c-0.176-0.403-0.412-0.783-0.693-1.137c-0.023-0.031-0.045-0.063-0.071-0.091   c-0.285-0.345-0.6-0.667-0.983-0.935l-18.803-13.15c-0.022-0.02-0.119-0.095-0.277-0.218c-0.062-0.047-0.17-0.13-0.249-0.191   c-0.131-0.101-0.242-0.188-0.42-0.319c-0.119-0.092-0.28-0.209-0.421-0.313c-0.188-0.139-0.356-0.268-0.579-0.429   c-0.17-0.122-0.376-0.266-0.562-0.399c-0.241-0.172-0.469-0.337-0.739-0.525c-0.199-0.136-0.423-0.285-0.633-0.427   c-0.301-0.205-0.591-0.404-0.917-0.62c-0.229-0.15-0.48-0.305-0.721-0.46c-0.341-0.218-0.672-0.431-1.031-0.653   c-0.264-0.163-0.545-0.325-0.819-0.488c-0.359-0.213-0.712-0.428-1.088-0.642c-0.297-0.168-0.606-0.328-0.914-0.495   c-0.328-0.178-0.649-0.36-0.984-0.533c-0.06-0.051-0.139-0.089-0.242-0.121c-0.006-0.004-0.013-0.008-0.018-0.012   c-0.146-0.071-0.302-0.107-0.458-0.107c-0.005,0-0.008,0-0.008,0h-1.307c-0.334-0.004-0.719-0.004-1.171-0.004l-7.095,0.004   c-0.243,0-0.477,0.087-0.661,0.245c-1.583,1.363-6.327,4.901-9.227,4.904c-1.659,0-2.583-0.436-2.761-0.868   c-0.131-0.317,0.096-0.822,0.506-1.242c0.009-0.006,0.236-0.188,0.623-0.489c0.436-0.343,1.075-0.84,1.833-1.42   c1.262-0.968,2.857-2.168,4.399-3.272c0.001,0,0.001-0.001,0.001-0.002c1.354-0.966,2.479-1.727,3.34-2.26   c1.537-0.94,3.854-1.503,6.199-1.503c1.327,0,2.53,0.183,3.479,0.527c5.749,2.094,12.46,6.281,12.526,6.325   c0.161,0.101,0.35,0.154,0.54,0.154h13.455l7.058,21.164L84.13,52.559L84.13,52.559z M77.657,57.142l-18.612-13.03   c-0.455-0.32-1.092-0.209-1.412,0.249c-0.32,0.458-0.21,1.089,0.249,1.41l16.212,11.352c1.361,0.992,1.687,2.917,0.718,4.298   c-0.942,1.351-2.962,1.715-4.324,0.762L56.481,52.38c-0.461-0.319-1.09-0.208-1.411,0.25c-0.32,0.456-0.21,1.09,0.25,1.41   l11.182,7.827c1.336,1.018,1.632,2.884,0.675,4.258c-0.952,1.351-2.966,1.715-4.332,0.761L48.375,56.789l-0.008-0.008   c-0.458-0.32-1.091-0.21-1.411,0.25c-0.32,0.459-0.209,1.093,0.249,1.413l11.88,8.322c0.683,0.476,1.134,1.185,1.276,2.005   c0.145,0.815-0.04,1.639-0.519,2.322c-0.945,1.35-2.958,1.714-4.319,0.76l-2.769-1.937c0,0-0.486-0.342-1.216-0.855   c0.318-0.844,0.429-1.76,0.266-2.675c-0.237-1.351-0.986-2.526-2.11-3.315c-1-0.704-2.216-0.951-3.399-0.836   c0.849-2.151,0.164-4.69-1.818-6.093c-2.249-1.564-5.584-0.971-7.155,1.267l-0.031,0.045c-0.337-1.07-0.995-2.006-1.93-2.654   c-1.843-1.291-4.405-1.102-6.133,0.233c-0.326-1.117-0.995-2.094-1.966-2.772c-2.242-1.571-5.583-0.967-7.142,1.268l-1.301,1.854   c-0.112,0.159-0.19,0.333-0.282,0.504c-1.302-0.626-2.459-1.188-3.348-1.619l7.871-23.597c4.105-1.645,7.623-2.453,11.083-2.472   c-0.019,0.014-0.038,0.028-0.057,0.043c-0.155,0.115-0.303,0.226-0.455,0.34c-0.216,0.163-0.428,0.321-0.635,0.479   c-0.137,0.104-0.269,0.203-0.402,0.306c-0.238,0.18-0.463,0.353-0.682,0.521c-0.077,0.06-0.157,0.121-0.232,0.179   c-0.306,0.236-0.589,0.453-0.845,0.654c-0.004,0.003-0.01,0.008-0.015,0.011c-0.247,0.191-0.459,0.358-0.647,0.507   c-0.057,0.044-0.099,0.078-0.15,0.117c-0.121,0.095-0.22,0.174-0.305,0.242c-0.04,0.032-0.077,0.062-0.109,0.087   c-0.092,0.074-0.159,0.127-0.172,0.139c-1.12,1.121-1.498,2.407-1.032,3.53c0.327,0.788,1.362,2.115,4.634,2.119   c0.942,0,1.973-0.257,3.01-0.656c0.777-0.299,1.559-0.681,2.309-1.095c0.562-0.313,1.106-0.642,1.618-0.973   c1.535-0.99,2.775-1.976,3.321-2.426l6.726-0.003c1.02,0,1.854,0,2.24,0.002c0.168,0.087,0.331,0.185,0.502,0.272   c0.285,0.15,0.566,0.305,0.848,0.458c0.271,0.15,0.546,0.3,0.812,0.452c0.355,0.206,0.7,0.414,1.046,0.622   c0.254,0.155,0.514,0.309,0.761,0.462c0.337,0.208,0.651,0.414,0.969,0.62c0.229,0.148,0.469,0.3,0.688,0.445   c0.312,0.207,0.595,0.402,0.882,0.598c0.191,0.133,0.397,0.27,0.578,0.395c0.283,0.198,0.531,0.378,0.782,0.559   c0.145,0.103,0.308,0.218,0.439,0.313c0.263,0.19,0.477,0.353,0.686,0.507c0.079,0.059,0.183,0.135,0.252,0.188   c0.213,0.161,0.372,0.284,0.506,0.386c0.032,0.023,0.086,0.065,0.111,0.087c0.141,0.107,0.227,0.177,0.237,0.187l18.855,13.186   c0.646,0.452,1.055,1.108,1.226,1.822c0.203,0.831,0.071,1.742-0.457,2.498C81.045,57.731,79.021,58.097,77.657,57.142z    M49.29,69.054l-0.427,0.61l-3.235,4.627c-0.941,1.347-2.963,1.71-4.32,0.76c-1.395-0.978-1.737-2.915-0.772-4.321   c0.001,0,0.002,0,0.003-0.003l1.236-1.764l2.005-2.859l0.427-0.611c0.053-0.075,0.124-0.131,0.18-0.202   c0.229-0.27,0.494-0.505,0.795-0.681c0.472-0.279,1.007-0.444,1.57-0.444c0.637,0,1.253,0.198,1.777,0.566   c0.682,0.476,1.135,1.188,1.279,2.005c0.065,0.372,0.055,0.744-0.013,1.105c-0.065,0.341-0.193,0.67-0.373,0.979   C49.378,68.895,49.343,68.978,49.29,69.054z M34.556,70.321c-0.68-0.476-1.134-1.188-1.277-2.005   c-0.143-0.815,0.039-1.641,0.516-2.317l1.185-1.696l0.646-0.926l0.65-0.931l2.707-3.872c0.584-0.831,1.539-1.326,2.557-1.326   c0.639,0,1.253,0.194,1.774,0.559c1.405,0.991,1.747,2.932,0.763,4.329l-1.006,1.438l-0.62,0.884l-0.626,0.895l-1.632,2.334   l-1.314,1.878c-0.001,0-0.003,0.003-0.005,0.003C37.927,70.911,35.914,71.271,34.556,70.321z M26.528,63.588   c-0.1-0.562-0.034-1.125,0.167-1.649c0.016-0.038,0.022-0.079,0.04-0.118c0.169-0.182,0.351-0.345,0.493-0.551l0.107-0.155   l0.593-0.846l0.6-0.853c0.233-0.333,0.41-0.694,0.557-1.062l0.793-1.134c0.58-0.828,1.53-1.322,2.543-1.322   c0.637,0,1.253,0.194,1.781,0.562c0.678,0.476,1.131,1.184,1.276,1.996c0.145,0.816-0.039,1.645-0.516,2.325l-0.921,1.32   l-0.643,0.915l-0.637,0.911l-0.633,0.903c-0.943,1.351-2.963,1.72-4.321,0.765C27.127,65.119,26.672,64.407,26.528,63.588z    M19.987,57.701c0.067-0.324,0.199-0.643,0.376-0.943c0.042-0.071,0.07-0.144,0.118-0.21l1.303-1.857   c0.58-0.828,1.532-1.327,2.547-1.327c0.634,0,1.247,0.194,1.769,0.559c0.684,0.479,1.138,1.191,1.283,2.008   c0.089,0.504,0.039,1.007-0.113,1.481c-0.095,0.293-0.22,0.579-0.403,0.841l-0.82,1.173l-0.479,0.681   c-0.039,0.057-0.089,0.1-0.131,0.151c-0.107,0.135-0.22,0.257-0.347,0.369c-0.157,0.137-0.327,0.252-0.509,0.355   c-1.019,0.57-2.346,0.583-3.333-0.106c-0.716-0.504-1.152-1.257-1.282-2.057C19.906,58.449,19.912,58.072,19.987,57.701z    M12.763,55.137h-0.347H7.029l0-29.501l14.489,3.254l-0.076,0.228l-0.43,1.29l-7.984,23.934L12.763,55.137z"/>
	<path d="M87.362,36.709h0.003c1.085,0,2.104-0.424,2.873-1.192c0.77-0.771,1.192-1.793,1.19-2.876   c0.002-1.087-0.419-2.109-1.187-2.877c-1.521-1.525-4.213-1.551-5.76,0.004c-0.766,0.769-1.188,1.79-1.188,2.874   C83.295,34.881,85.119,36.706,87.362,36.709z M85.921,31.196c0.382-0.384,0.891-0.599,1.448-0.599c0.544,0,1.055,0.213,1.437,0.599   c0.385,0.385,0.597,0.896,0.594,1.442c0.003,0.546-0.211,1.057-0.595,1.444c-0.385,0.386-0.896,0.598-1.439,0.598   c-1.128-0.001-2.043-0.917-2.043-2.04C85.322,32.096,85.534,31.583,85.921,31.196z"/>
	<path d="M12.637,28.567c-2.245,0.003-4.07,1.832-4.069,4.076c0,2.242,1.827,4.066,4.073,4.066c1.087,0,2.108-0.422,2.875-1.192   c0.768-0.769,1.188-1.793,1.187-2.874C16.711,30.404,14.89,28.574,12.637,28.567z M10.596,32.64   c-0.001-1.127,0.917-2.044,2.04-2.046c1.128,0.003,2.043,0.919,2.04,2.046c0.001,0.544-0.209,1.057-0.596,1.443   c-0.383,0.385-0.896,0.597-1.44,0.597C11.513,34.681,10.596,33.765,10.596,32.64z"/>
</g>
</svg>