<svg xmlns="http://www.w3.org/2000/svg" xmlns:xlink="http://www.w3.org/1999/xlink" version="1.1" x="0px" y="0px" viewBox="0 0 48 48" enable-background="new 0 0 48 48" xml:space="preserve"><g><path fill="#000000" d="M38.9,38.9H9.1V9.1h29.9V38.9z M11.1,36.9h25.9V11.1H11.1V36.9z"></path><path fill="#000000" d="M33.6,33.6H14.4V14.4h19.1V33.6z M16.4,31.6h15.1V16.4H16.4V31.6z"></path><polygon fill="#000000" points="18,10.1 16,10.1 16,2.5 13,2.5 13,0.5 18,0.5  "></polygon><rect x="23" y="1.5" fill="#000000" width="2" height="8.6"></rect><polygon fill="#000000" points="32,10.1 30,10.1 30,0.5 35,0.5 35,2.5 32,2.5  "></polygon><polygon fill="#000000" points="18,47.5 13,47.5 13,45.5 16,45.5 16,37.9 18,37.9  "></polygon><rect x="23" y="37.9" fill="#000000" width="2" height="8.6"></rect><polygon fill="#000000" points="35,47.5 30,47.5 30,37.9 32,37.9 32,45.5 35,45.5  "></polygon><polygon fill="#000000" points="47.5,35 45.5,35 45.5,32 37.9,32 37.9,30 47.5,30  "></polygon><rect x="37.9" y="23" fill="#000000" width="8.6" height="2"></rect><polygon fill="#000000" points="47.5,18 37.9,18 37.9,16 45.5,16 45.5,13 47.5,13  "></polygon><polygon fill="#000000" points="2.5,35 0.5,35 0.5,30 10.1,30 10.1,32 2.5,32  "></polygon><rect x="1.5" y="23" fill="#000000" width="8.6" height="2"></rect><polygon fill="#000000" points="10.1,18 0.5,18 0.5,13 2.5,13 2.5,16 10.1,16  "></polygon></g></svg>