<?xml version="1.0" encoding="utf-8"?><!DOCTYPE svg PUBLIC "-//W3C//DTD SVG 1.1//EN" "http://www.w3.org/Graphics/SVG/1.1/DTD/svg11.dtd"><svg version="1.1" xmlns="http://www.w3.org/2000/svg" xmlns:xlink="http://www.w3.org/1999/xlink" x="0px" y="0px" viewBox="0 0 99.969 100" enable-background="new 0 0 99.969 100" xml:space="preserve"><path fill="#010101" d="M49.969,18.562c-3.404,0-6.156,2.746-6.156,6.156c0,3.409,2.752,6.156,6.156,6.156
	c3.407,0,6.188-2.746,6.188-6.156S53.375,18.562,49.969,18.562z"></path><path fill="#010101" d="M16.75,21.219c-0.614-0.018-1.237,0.211-1.719,0.594s-0.815,0.929-0.938,1.531
	c-0.03,0.15-0.028,0.284-0.031,0.438c-0.009,0.462,0.091,0.939,0.312,1.344c0.295,0.54,0.802,0.996,1.375,1.219l11.062,4.469
	l16.031,0.812L17.688,21.469C17.388,21.343,17.074,21.228,16.75,21.219z"></path><path fill="#010101" d="M83.281,21.219c-0.352,0-0.708,0.114-1.031,0.25L57.125,31.625l16.062-0.812l11.062-4.469
	c0.566-0.22,1.048-0.656,1.344-1.188s0.393-1.152,0.281-1.75s-0.439-1.174-0.906-1.562c-0.234-0.194-0.499-0.331-0.781-0.438
	S83.585,21.219,83.281,21.219z"></path><path fill="#010101" d="M15.219,31.281c-0.681,0.003-1.36,0.271-1.844,0.75c-0.484,0.479-0.771,1.163-0.781,1.844
	s0.25,1.35,0.719,1.844s1.163,0.819,1.844,0.844l26.375,1.344l-14.938-6.062l-11.188-0.562
	C15.345,31.277,15.28,31.281,15.219,31.281z"></path><path fill="#010101" d="M84.562,31.281l-11.188,0.562l-14.938,6.062l26.406-1.344c0.674-0.024,1.313-0.358,1.781-0.844
	s0.75-1.139,0.75-1.812c-0.001-0.674-0.282-1.359-0.75-1.844c-0.469-0.485-1.107-0.757-1.781-0.781
	C84.756,31.278,84.65,31.275,84.562,31.281z"></path><polygon fill="#010101" points="29.75,32 42.594,37.188 42.594,37.938 42.594,57.469 42.594,58.219 42.594,67.938 47.375,59.719 
	52.562,59.688 57.375,67.938 57.375,58.219 57.375,57.469 57.375,37.938 57.375,37.188 70.219,32 54.594,32.781 45.344,32.781 "></polygon><path fill="#010101" d="M41.531,59.281L25.969,85.938c-0.181,0.298-0.324,0.655-0.375,1c-0.052,0.345-0.023,0.662,0.062,1
	c0.043,0.169,0.112,0.342,0.188,0.5s0.146,0.297,0.25,0.438c0.208,0.281,0.48,0.543,0.781,0.719s0.654,0.267,1,0.312
	c0.345,0.046,0.694,0.028,1.031-0.062c0.672-0.182,1.251-0.643,1.594-1.25l11.031-18.875V59.281z"></path><path fill="#010101" d="M58.438,59.281v10.438l11.031,18.875c0.342,0.607,0.921,1.068,1.594,1.25
	c0.336,0.091,0.686,0.108,1.031,0.062c0.345-0.046,0.699-0.137,1-0.312c0.602-0.352,1.047-0.98,1.219-1.656
	c0.086-0.338,0.113-0.655,0.062-1c-0.052-0.345-0.163-0.702-0.344-1L58.438,59.281z"></path><path fill="#010101" d="M52.125,60.906v31.75c-0.013,0.697,0.229,1.408,0.719,1.906c0.488,0.498,1.208,0.781,1.906,0.781
	c0.697,0,1.386-0.283,1.875-0.781c0.488-0.498,0.763-1.209,0.75-1.906V70L52.125,60.906z"></path><path fill="#010101" d="M47.875,60.938l-5.281,9.031v22.688c-0.013,0.697,0.261,1.408,0.75,1.906
	c0.488,0.498,1.177,0.781,1.875,0.781c0.697,0,1.417-0.283,1.906-0.781c0.488-0.498,0.763-1.209,0.75-1.906V60.938z"></path><path fill="#010101" d="M91.562,22.281v-3.844v-1.594h-1.594h-2.594C78.214,6.534,64.831,0,49.969,0
	C35.105,0,21.754,6.534,12.594,16.844H10H8.406v1.594v3.844C3.099,30.22,0,39.742,0,50s3.099,19.812,8.406,27.75v20.656V100H10
	h39.969h40h1.594v-1.594V77.75c5.309-7.939,8.406-17.492,8.406-27.75C99.969,39.742,96.871,30.22,91.562,22.281z M8.406,71.531
	C5.068,65.09,3.188,57.762,3.188,50s1.881-15.058,5.219-21.5V71.531z M49.969,3.188c12.897,0,24.6,5.231,33.062,13.656H63.219
	h-46.25C25.432,8.418,37.07,3.188,49.969,3.188z M11.594,96.812V82c5.498,6.592,12.635,11.738,20.812,14.812H11.594z M88.375,96.812
	H67.562C75.74,93.738,82.877,88.592,88.375,82V96.812z M88.375,76.781c-8.458,12.111-22.499,20.031-38.406,20.031
	s-29.918-7.92-38.375-20.031V23.219c0.773-1.108,1.604-2.184,2.469-3.219h30.469c1.326-1.527,3.268-2.5,5.438-2.5
	c2.171,0,4.134,0.974,5.469,2.5h3.594h26.906c0.864,1.036,1.663,2.11,2.438,3.219V76.781z M91.562,28.5
	c3.337,6.442,5.219,13.738,5.219,21.5s-1.882,15.09-5.219,21.531V28.5z"></path></svg>