<svg xmlns="http://www.w3.org/2000/svg" xmlns:xlink="http://www.w3.org/1999/xlink" version="1.1" x="0px" y="0px" viewBox="0 0 100 100" enable-background="new 0 0 100 100" xml:space="preserve"><path d="M40.2,71.2C31.8,66.1,27.4,59.4,27.4,50s4.4-16.1,12.8-21.2c0.3-0.2,1-0.4,1.9-0.4c1.5,0,3,1.6,3,3.2c0,1.2-0.6,2.1-1.3,2.6  c-6,4.5-8.6,9.1-8.6,15.9s2.6,11.4,8.6,15.9c0.7,0.5,1.3,1.3,1.3,2.6c0,1.6-1.4,3.2-3,3.2C41.2,71.6,40.5,71.4,40.2,71.2z"></path><path d="M54.9,68.4c0-1.2,0.6-2.1,1.3-2.6c6-4.5,8.6-9.1,8.6-15.9S62.2,38.5,56.2,34c-0.7-0.5-1.3-1.3-1.3-2.6c0-1.6,1.4-3.2,3-3.2  c0.9,0,1.6,0.3,1.9,0.4c8.4,5.1,12.8,11.8,12.8,21.2S68.2,65.9,59.8,71c-0.3,0.2-1,0.4-1.9,0.4C56.4,71.6,54.9,70,54.9,68.4z"></path></svg>