<svg xmlns="http://www.w3.org/2000/svg" xmlns:xlink="http://www.w3.org/1999/xlink" version="1.1" x="0px" y="0px" viewBox="0 0 100 100" enable-background="new 0 0 100 100" xml:space="preserve"><g><rect x="34.531" y="89.375" width="12.656" height="5.625"></rect><rect x="52.812" y="89.375" width="12.656" height="5.625"></rect><rect x="52.812" y="73.906" width="12.656" height="12.656"></rect><rect x="34.531" y="73.906" width="12.656" height="12.656"></rect><rect x="52.812" y="61.25" width="12.656" height="9.844"></rect><rect x="34.531" y="61.25" width="12.656" height="9.844"></rect><rect x="34.531" y="28.906" width="30.938" height="29.531"></rect><rect x="23.281" y="28.906" width="8.438" height="15.469"></rect><rect x="23.281" y="47.188" width="8.438" height="15.469"></rect><rect x="68.281" y="28.906" width="8.438" height="15.469"></rect><rect x="68.281" y="47.188" width="8.438" height="15.469"></rect><path d="M61.25,5h-22.5v21.094h22.5V5z M48.594,19.062h-7.031V9.219h7.031V19.062z M58.438,19.062h-7.031V9.219h7.031V19.062z"></path><rect x="42.969" y="12.031" width="4.219" height="4.219"></rect><rect x="52.812" y="12.031" width="4.22" height="4.219"></rect></g></svg>