<svg xmlns="http://www.w3.org/2000/svg" xmlns:xlink="http://www.w3.org/1999/xlink" version="1.1" x="0px" y="0px" viewBox="0 0 100 100" enable-background="new 0 0 100 100" xml:space="preserve"><path d="M79.738,43.072c0.458,0.457,1.2,0.457,1.658,0l7.668-7.669c0.458-0.458,0.458-1.2,0-1.657l-7.858-7.859  c0.945-0.617,2.137-1.248,1.617-1.771l-5.377-5.375c-0.52-0.521-1.152,0.67-1.77,1.617l-7.859-7.859  c-0.457-0.457-1.199-0.457-1.657,0l-7.669,7.669c-0.458,0.458-0.458,1.2,0,1.658l7.769,7.769L48.896,46.24L30.23,28.349l5.856-5.857  c0.359-0.359,0.282-1.023-0.176-1.481l-7.669-7.668c-0.458-0.459-1.122-0.536-1.481-0.177l-5.946,5.946  c-0.617-0.947-1.25-2.137-1.77-1.617l-5.377,5.376c-0.52,0.522,0.671,1.154,1.616,1.771l-4.479,4.479  c-0.151,0.151-0.207,0.359-0.208,0.58c0,0.002-0.002,0.003-0.002,0.006v0.01c0,0.046-0.007,0.088,0,0.135v7.908  c0,0.496,0.401,0.896,0.896,0.895h7.903c0.28,0.043,0.55-0.02,0.737-0.207l4.39-4.389l17.76,18.525L14.366,79.343  c-0.786,0.784-0.866,1.976-0.182,2.662l5.375,5.373c0.686,0.686,1.877,0.604,2.661-0.181l26.622-27.769l25.428,26.522  c0.784,0.784,1.975,0.867,2.66,0.181l5.376-5.372c0.685-0.688,0.604-1.878-0.183-2.662L55.455,52.531l16.516-17.228L79.738,43.072z"></path></svg>