<svg xmlns="http://www.w3.org/2000/svg" xmlns:xlink="http://www.w3.org/1999/xlink" version="1.1" x="0px" y="0px" viewBox="0 0 100 100" enable-background="new 0 0 100 100" xml:space="preserve"><g><path fill="#000000" d="M61.697,45.77H46.583V30.86h15.114V45.77z M47.583,44.77h13.114V31.86H47.583V44.77z"></path></g><g><path fill="#000000" d="M80.221,40.963H65.107V30.86h15.113V40.963z M66.107,39.963h13.113V31.86H66.107V39.963z"></path></g><g><path fill="#000000" d="M80.221,77.145H65.107V67.042h15.113V77.145z M66.107,76.145h13.113v-8.103H66.107V76.145z"></path></g><g><path fill="#000000" d="M61.697,59.346H46.583V49.244h15.114V59.346z M47.583,58.346h13.114v-8.103H47.583V58.346z"></path></g><g><path fill="#000000" d="M61.697,77.807H46.583V62.897h15.114V77.807z M47.583,76.807h13.114V63.897H47.583V76.807z"></path></g><g><path fill="#000000" d="M80.221,64.294H65.107V44.296h15.113V64.294z M66.107,63.294h13.113V45.296H66.107V63.294z"></path></g><g><path fill="#000000" d="M27.002,50.75H13.75c-0.276,0-0.5-0.224-0.5-0.5s0.224-0.5,0.5-0.5h13.252c0.276,0,0.5,0.224,0.5,0.5   S27.278,50.75,27.002,50.75z"></path></g><g><path fill="#000000" d="M27.002,54.917H13.75c-0.276,0-0.5-0.224-0.5-0.5s0.224-0.5,0.5-0.5h13.252c0.276,0,0.5,0.224,0.5,0.5   S27.278,54.917,27.002,54.917z"></path></g><g><path fill="#000000" d="M21.295,58.917H13.75c-0.276,0-0.5-0.224-0.5-0.5s0.224-0.5,0.5-0.5h7.545c0.276,0,0.5,0.224,0.5,0.5   S21.571,58.917,21.295,58.917z"></path></g><g><path fill="#000000" d="M93,88H7V22h86V88z M9,86h82V24H9V86z"></path></g><g><path fill="#000000" d="M93,24H7v-9.204C7,13.069,8.752,12,10.375,12h79.25C91.248,12,93,13.069,93,14.796V24z M9,22h82v-7.204   C91,14.402,90.306,14,89.625,14h-79.25C9.694,14,9,14.402,9,14.796V22z"></path></g><g><circle fill="#000000" cx="14.208" cy="17.792" r="1.542"></circle></g><g><circle fill="#000000" cx="19.208" cy="17.792" r="1.542"></circle></g><g><circle fill="#000000" cx="24.208" cy="17.792" r="1.542"></circle></g><path fill="#000000" d="M20.417,30.381c-4.162,0-7.535,3.374-7.535,7.535c0,4.162,3.374,7.535,7.535,7.535s7.535-3.374,7.535-7.535  C27.952,33.755,24.578,30.381,20.417,30.381z M20.417,41.547h-3.63c0,0,0-0.649,0.316-1.281c0.235-0.471,1.176-0.749,2.438-1.223  v-1.001c0,0-0.386-0.301-0.386-0.932c-0.158,0-0.316-0.631,0-0.789c0-0.128-0.631-1.578,0.316-1.578  c0.158-0.631,2.367-0.631,2.525,0.158c0.107,0.536-0.316,1.327-0.316,1.42c0.316,0.158,0.158,0.789,0,0.789  c0,0.631-0.386,0.987-0.386,0.987v0.947c1.263,0.474,2.203,0.752,2.438,1.223c0.316,0.631,0.316,1.281,0.316,1.281H20.417z"></path><g><path fill="#000000" d="M34.5,86.5c-0.276,0-0.5-0.224-0.5-0.5V23c0-0.276,0.224-0.5,0.5-0.5S35,22.724,35,23v63   C35,86.276,34.776,86.5,34.5,86.5z"></path></g></svg>