<svg xmlns="http://www.w3.org/2000/svg" xmlns:xlink="http://www.w3.org/1999/xlink" version="1.1" x="0px" y="0px" viewBox="0 0 100 100" enable-background="new 0 0 100 100" xml:space="preserve"><g><path fill="#000000" d="M93,88H7V22h86V88z M9,86h82V24H9V86z"></path></g><g><path fill="#000000" d="M93,24H7v-9.204C7,13.069,8.752,12,10.375,12h79.25C91.248,12,93,13.069,93,14.796V24z M9,22h82v-7.204   C91,14.402,90.306,14,89.625,14h-79.25C9.694,14,9,14.402,9,14.796V22z"></path></g><g><circle fill="#000000" cx="14.208" cy="17.792" r="1.542"></circle></g><g><circle fill="#000000" cx="19.208" cy="17.792" r="1.542"></circle></g><g><circle fill="#000000" cx="24.208" cy="17.792" r="1.542"></circle></g><g><path fill="#000000" d="M29.364,44.875H14.25V29.965h15.114V44.875z M15.25,43.875h13.114V30.965H15.25V43.875z"></path></g><g><path fill="#000000" d="M47.888,40.068H32.774V29.965h15.114V40.068z M33.774,39.068h13.114v-8.103H33.774V39.068z"></path></g><g><path fill="#000000" d="M86.388,63.002H71.274V52.9h15.114V63.002z M72.274,62.002h13.114V53.9H72.274V62.002z"></path></g><g><path fill="#000000" d="M86.388,76.25H71.274V66.147h15.114V76.25z M72.274,75.25h13.114v-8.103H72.274V75.25z"></path></g><g><path fill="#000000" d="M47.888,76.25H32.774V66.147h15.114V76.25z M33.774,75.25h13.114v-8.103H33.774V75.25z"></path></g><g><path fill="#000000" d="M29.364,58.451H14.25V48.349h15.114V58.451z M15.25,57.451h13.114v-8.103H15.25V57.451z"></path></g><g><path fill="#000000" d="M67,76.25H51.886V66.147H67V76.25z M52.886,75.25H66v-8.103H52.886V75.25z"></path></g><g><path fill="#000000" d="M67,44.875H51.886V29.965H67V44.875z M52.886,43.875H66V30.965H52.886V43.875z"></path></g><g><path fill="#000000" d="M29.364,76.912H14.25V62.002h15.114V76.912z M15.25,75.912h13.114V63.002H15.25V75.912z"></path></g><g><path fill="#000000" d="M47.888,63.398H32.774V43.401h15.114V63.398z M33.774,62.398h13.114V44.401H33.774V62.398z"></path></g><g><path fill="#000000" d="M86.388,49.566H71.274V29.569h15.114V49.566z M72.274,48.566h13.114V30.569H72.274V48.566z"></path></g><g><path fill="#000000" d="M67,63.398H51.886V48.489H67V63.398z M52.886,62.398H66V49.489H52.886V62.398z"></path></g></svg>