<svg xmlns="http://www.w3.org/2000/svg" xmlns:xlink="http://www.w3.org/1999/xlink" version="1.1" id="Layer_1" x="0px" y="0px" width="100px" height="100px" viewBox="5.0 -10.0 100.0 135.0" enable-background="new 0 0 100 100" xml:space="preserve">
<g>
	<path d="M79.348,2.5H20.652c-4.529,0-8.213,3.685-8.213,8.213v78.574c0,4.527,3.684,8.213,8.213,8.213h58.696   c4.527,0,8.213-3.686,8.213-8.213V10.714C87.561,6.185,83.875,2.5,79.348,2.5z M86.393,89.288c0,3.885-3.161,7.047-7.045,7.047   H20.652c-3.886,0-7.046-3.162-7.046-7.047V10.714c0-3.886,3.16-7.046,7.046-7.046h58.696c3.884,0,7.045,3.161,7.045,7.046V89.288z"/>
	<path d="M43.193,44.953c2.231,0.412,4.699,0.445,6.837,0.445c4.869,0,10.59-0.34,11.611-2.989c0.316-0.81,0.174-2.118,0.003-2.622   c-0.717-2.135-3.737-3.462-5.359-4.177c-0.117-0.052-0.269-0.108-0.439-0.173l-0.149-0.055c-0.922-0.34-2.315-0.853-2.514-1.606   c-0.279-1.068,0.403-1.955,1.078-2.833c0.263-0.343,0.513-0.669,0.701-1.004c0.75-1.336,1.305-3.061,1.413-4.393   c0.195-2.406-0.379-4.412-1.659-5.798c-1.124-1.221-2.711-1.865-4.591-1.865c-0.324,0-0.656,0.02-0.985,0.057   c-3.141,0.361-5.229,2.649-5.449,5.968c-0.178,2.606,0.553,4.993,2.232,7.297c0.104,0.146,0.215,0.283,0.315,0.415   c0.422,0.534,0.786,0.997,0.716,1.717c-0.091,0.929-1.015,1.283-1.757,1.563l-0.301,0.118c-0.893,0.358-1.863,0.895-2.398,1.192   l-0.131,0.072c-1.726,0.956-3.604,2.104-4.025,3.657c-0.296,1.094-0.208,1.994,0.268,2.752   C39.51,44.125,41.657,44.669,43.193,44.953z"/>
	<path d="M72.8,60.545H27.2c-1.049,0-1.9,0.852-1.9,1.9s0.852,1.9,1.9,1.9H72.8c1.049,0,1.9-0.852,1.9-1.9   S73.849,60.545,72.8,60.545z"/>
	<path d="M72.8,69.432H27.2c-1.049,0-1.9,0.852-1.9,1.9s0.852,1.9,1.9,1.9H72.8c1.049,0,1.9-0.852,1.9-1.9   S73.849,69.432,72.8,69.432z"/>
	<path d="M72.8,78.317H27.2c-1.049,0-1.9,0.854-1.9,1.902s0.852,1.898,1.9,1.898H72.8c1.049,0,1.9-0.85,1.9-1.898   S73.849,78.317,72.8,78.317z"/>
</g>
</svg>