<svg xmlns="http://www.w3.org/2000/svg" xmlns:xlink="http://www.w3.org/1999/xlink" version="1.1" x="0px" y="0px" viewBox="0 0 100 100" enable-background="new 0 0 100 100" xml:space="preserve"><g><rect x="26" y="60" width="8" height="29"></rect><path d="M73.2,61.5C72,60.1,70,60,69,60H56.4c0.6-7,0.8-12.4-1.3-14.8c-0.7-0.8-1.5-1.2-2.5-1.3c-2.8,0-3.1,2.7-3.6,5   c-0.8,3.9-2,9.3-11,11.6V84h1.3c4,0,5.3,0.9,7.1,2c2.1,1.3,4.5,2.9,11.2,2.9c15.1,0,15.4-3.7,16.6-19.4l0.3-3.4   C74.6,64.2,74.2,62.5,73.2,61.5z"></path></g><path d="M57.1,11.7l-3.2-1.9l0,0l0,0c-0.5-0.3-1.1-0.4-1.7-0.4c-2.3,0-5,2.1-6.9,5.3c-1.1,1.9-1.7,3.9-1.8,5.6  c-0.1,2,0.6,3.5,1.9,4.2l3.2,1.9c0.5,0.3,1.1,0.4,1.7,0.4c0.9,0,1.9-0.3,2.9-0.9c1.5-0.9,2.9-2.5,4-4.3s1.7-3.9,1.8-5.6  C59,14,58.3,12.5,57.1,11.7z M56.9,15.9c0,1-0.3,2-0.7,3.1l-1.5-0.9c0.6-1.4,0.9-2.8,1-4c0-0.3,0-0.6,0-0.8l0.4,0.2  C56.6,13.8,57,14.7,56.9,15.9z M54.5,22L53,21.1c0.3-0.4,0.5-0.8,0.8-1.2l1.5,0.9C55.1,21.2,54.8,21.6,54.5,22z M52.7,23.8L51.3,23  c0.1-0.1,0.3-0.2,0.4-0.3l1.4,0.8C53,23.6,52.9,23.7,52.7,23.8z M47,15.7c1.6-2.8,3.8-4.3,5.2-4.3c0.3,0,0.5,0.1,0.7,0.2  c0.6,0.3,0.9,1.2,0.9,2.4c0,1.4-0.6,3.1-1.5,4.7c-1.6,2.8-3.8,4.3-5.2,4.3c-0.3,0-0.5-0.1-0.7-0.2c-0.6-0.3-0.9-1.2-0.9-2.4  C45.5,18.9,46,17.3,47,15.7z M49.6,24.7l-0.4-0.2c0.1-0.1,0.2-0.1,0.4-0.2l1,0.6C50.2,24.9,49.8,24.8,49.6,24.7z"></path></svg>