<svg xmlns="http://www.w3.org/2000/svg" xmlns:xlink="http://www.w3.org/1999/xlink" xmlns:sketch="http://www.bohemiancoding.com/sketch/ns" width="100px" height="100px" viewBox="5.0 -10.0 100.0 135.0" version="1.1">
    <!-- Generator: Sketch 3.0.2 (7799) - http://www.bohemiancoding.com/sketch -->
    <title>chart_line_up_12</title>
    <description>Created with Sketch.</description>
    <defs/>
    <g id="Statistics" stroke="none" stroke-width="1" fill="none" fill-rule="evenodd" sketch:type="MSPage">
        <path d="M87.6340972,60.1123043 L91.7768676,63.4670536 L94.7587584,47.8671072 L80.1196782,54.0272477 L84.5318019,57.6001151 L70.8129837,75.1247834 L17.1215275,38.8300671 L4.68318864,53.7560738 L7.75607376,56.3168114 L17.8332046,44.1393324 L71.5282779,80.4364938 L87.6340972,60.1123043 Z M35.6223996,49.00297 L40.9910448,42.4669478 L57.4039132,50.4100871 L80.8680085,22.6816767 L76.5641218,18.940365 L91.4092701,13.2948736 L87.8847655,28.7812504 L83.880194,25.3001296 L83.880194,25.3001296 L58.3420799,55.3079302 L42.0334729,47.415249 L38.9139477,51.2231472 L35.6223996,49.00297 L35.6223996,49.00297 Z M30.521983,55.2124392 L12.7006995,76.9088454 L15.7916579,79.447738 L33.8222034,57.4384659 L30.521983,55.2124392 L30.521983,55.2124392 Z M95,98 L2,98 L2,96.5 L2,5 L2,5 L0,5 L3,0 L6,5 L4,5 L4,96 L95,96 L95,93.9526367 L100,96.9763184 L95,100 L95,98 L95,98 Z" id="chart_line_up_12" fill="#000000" sketch:type="MSShapeGroup"/>
    </g>
</svg>