<svg xmlns="http://www.w3.org/2000/svg" xmlns:xlink="http://www.w3.org/1999/xlink" version="1.1" x="0px" y="0px" viewBox="0 0 100 100" enable-background="new 0 0 100 100" xml:space="preserve"><g><path d="M49.6,48.3c7.6,0,13.8-6.2,13.8-13.8c0-7.6-6.2-13.8-13.8-13.8s-13.8,6.2-13.8,13.8C35.8,42.1,42,48.3,49.6,48.3z    M52.7,45.9l8.2-8.2C59.9,41.7,56.7,44.8,52.7,45.9z M61.4,34.5c0,0.2,0,0.4,0,0.6L50.2,46.3c-0.2,0-0.4,0-0.6,0   c-0.7,0-1.3-0.1-2-0.2l13.6-13.6C61.4,33.2,61.4,33.8,61.4,34.5z M60.1,29c0.3,0.6,0.6,1.2,0.8,1.8L45.9,45.7   c-0.6-0.2-1.2-0.5-1.8-0.8L60.1,29z M59.2,27.7L42.8,44.2c-0.5-0.3-0.9-0.7-1.3-1.1l16.7-16.7C58.6,26.8,58.9,27.3,59.2,27.7z    M45.5,23.5l-6.9,6.9C39.8,27.2,42.3,24.7,45.5,23.5z M37.8,34.5c0-0.5,0-0.9,0.1-1.4l10.4-10.4c0.4-0.1,0.9-0.1,1.4-0.1   c0.3,0,0.7,0,1,0.1L37.9,35.5C37.8,35.2,37.8,34.9,37.8,34.5z M38.2,37.4l14.3-14.3c0.6,0.1,1.2,0.3,1.7,0.6L38.7,39.1   C38.5,38.5,38.3,38,38.2,37.4z M55.6,24.4c0.5,0.3,1,0.7,1.5,1L40.5,42c-0.4-0.5-0.7-1-1-1.5L55.6,24.4z"></path><path d="M31.5,68.2c-2.7,0-4.9,2.2-4.9,4.9c0,2.7,2.2,4.9,4.9,4.9s4.9-2.2,4.9-4.9C36.4,70.4,34.2,68.2,31.5,68.2z"></path><path d="M70.3,38.2c2.7,0,4.9-2.2,4.9-4.9s-2.2-4.9-4.9-4.9c-2.7,0-4.9,2.2-4.9,4.9S67.6,38.2,70.3,38.2z M70.3,30.5   c1.6,0,2.9,1.3,2.9,2.9s-1.3,2.9-2.9,2.9c-1.6,0-2.9-1.3-2.9-2.9S68.7,30.5,70.3,30.5z"></path><path d="M33.5,38.1c0-3.2-2.6-5.8-5.8-5.8s-5.8,2.6-5.8,5.8c0,3.2,2.6,5.8,5.8,5.8S33.5,41.3,33.5,38.1z"></path><path d="M46.9,57.1c0,3.4,2.7,6.1,6.1,6.1s6.1-2.7,6.1-6.1S56.4,51,53,51S46.9,53.7,46.9,57.1z M57.1,57.1c0,2.3-1.8,4.1-4.1,4.1   s-4.1-1.8-4.1-4.1c0-2.2,1.8-4.1,4.1-4.1S57.1,54.8,57.1,57.1z"></path><path d="M67.4,58c-4.8,0-8.7,3.9-8.7,8.7s3.9,8.7,8.7,8.7s8.7-3.9,8.7-8.7S72.3,58,67.4,58z"></path><path d="M34,66.4c5.7,0,10.3-4.6,10.3-10.3S39.7,45.8,34,45.8c-5.7,0-10.3,4.6-10.3,10.3S28.3,66.4,34,66.4z M34,47.8   c4.6,0,8.3,3.7,8.3,8.3c0,4.6-3.7,8.3-8.3,8.3s-8.3-3.7-8.3-8.3C25.7,51.5,29.4,47.8,34,47.8z"></path><path d="M48.2,64.9c-5.3,0-9.6,4.3-9.6,9.6s4.3,9.6,9.6,9.6s9.6-4.3,9.6-9.6S53.5,64.9,48.2,64.9z M47,81.9   c-0.8-0.1-1.5-0.4-2.2-0.7L55,71.1c0.3,0.7,0.6,1.4,0.7,2.2L47,81.9z M49.5,67c0.7,0.1,1.4,0.4,2,0.7L41.4,77.8   c-0.3-0.6-0.5-1.3-0.7-2L49.5,67z M47.4,66.9l-6.8,6.8C41,70.2,43.9,67.3,47.4,66.9z M42.2,79.1l10.6-10.6c0.5,0.4,0.9,0.8,1.3,1.3   L43.5,80.4C43,80.1,42.6,79.6,42.2,79.1z M49.1,82l6.6-6.6C55.3,78.8,52.5,81.6,49.1,82z"></path><path d="M69.8,56.1c4.4,0,8-3.6,8-8s-3.6-8-8-8s-8,3.6-8,8S65.4,56.1,69.8,56.1z M72.7,53.4l2.5-2.5C74.6,52,73.7,52.8,72.7,53.4z    M75.5,46.1c0.2,0.6,0.3,1.3,0.3,2c0,0,0,0,0,0l-6,6c0,0,0,0,0,0c-0.7,0-1.4-0.1-2-0.3L75.5,46.1z M74.8,44.7l-8.4,8.4   c-0.6-0.4-1.1-0.9-1.5-1.5l8.4-8.4C73.9,43.6,74.4,44.1,74.8,44.7z M67.2,42.7l-2.8,2.8C65,44.3,66,43.3,67.2,42.7z M69.9,42.1   c0.7,0,1.3,0.1,2,0.4l-7.7,7.7c-0.2-0.6-0.4-1.3-0.4-2L69.9,42.1z"></path></g></svg>