<?xml version="1.0" encoding="utf-8"?>
<!-- Generator: Adobe Illustrator 16.0.0, SVG Export Plug-In . SVG Version: 6.00 Build 0)  -->
<!DOCTYPE svg PUBLIC "-//W3C//DTD SVG 1.1//EN" "http://www.w3.org/Graphics/SVG/1.1/DTD/svg11.dtd">
<svg version="1.1" id="Layer_1" xmlns="http://www.w3.org/2000/svg" xmlns:xlink="http://www.w3.org/1999/xlink" x="0px" y="0px"
	 width="27.879px" height="27.879px" viewBox="81.06 0.06 27.879 27.879" enable-background="new 81.06 0.06 27.879 27.879"
	 xml:space="preserve">
<path fill="none" d="M95,26.892c7.108,0,12.892-5.783,12.892-12.892S102.108,1.108,95,1.108S82.108,6.892,82.108,14
	S87.892,26.892,95,26.892z M89.869,11.337c0.107-0.107,0.28-0.107,0.388,0L95,16.081l4.743-4.743c0.106-0.107,0.28-0.107,0.388,0
	c0.107,0.107,0.107,0.28,0,0.388l-4.937,4.937c-0.054,0.053-0.124,0.08-0.194,0.08s-0.14-0.027-0.194-0.08l-4.937-4.938
	C89.762,11.618,89.762,11.445,89.869,11.337z"/>
<path fill="#FFFFFF" stroke="#FFFFFF" stroke-width="0.6" stroke-miterlimit="10" d="M94.806,16.663
	c0.054,0.053,0.124,0.08,0.194,0.08s0.14-0.027,0.194-0.08l4.937-4.938c0.107-0.107,0.107-0.28,0-0.388
	c-0.107-0.107-0.281-0.107-0.388,0L95,16.081l-4.743-4.743c-0.107-0.107-0.281-0.107-0.388,0c-0.107,0.107-0.107,0.281,0,0.388
	L94.806,16.663z"/>
<path fill="#FFFFFF" stroke="#FFFFFF" stroke-width="0.6" stroke-miterlimit="10" d="M95,27.439c7.41,0,13.439-6.029,13.439-13.439
	c0-7.411-6.029-13.44-13.439-13.44c-7.411,0-13.44,6.029-13.44,13.44C81.56,21.41,87.589,27.439,95,27.439z M95,1.108
	c7.108,0,12.892,5.783,12.892,12.892S102.108,26.892,95,26.892S82.108,21.108,82.108,14S87.892,1.108,95,1.108z"/>
</svg>
