<?xml version="1.0" encoding="utf-8"?>
<!-- Generator: Adobe Illustrator 16.0.0, SVG Export Plug-In . SVG Version: 6.00 Build 0)  -->
<!DOCTYPE svg PUBLIC "-//W3C//DTD SVG 1.1//EN" "http://www.w3.org/Graphics/SVG/1.1/DTD/svg11.dtd">
<svg version="1.1" id="Layer_1" xmlns="http://www.w3.org/2000/svg" xmlns:xlink="http://www.w3.org/1999/xlink" x="0px" y="0px"
	 width="500px" height="500px" viewBox="0 0 500 500" enable-background="new 0 0 500 500" xml:space="preserve">
<g>
	<path fill="#010101" d="M122.012,293.088c0-0.579,0-0.579,0.581-1.16l6.384-13.931l31.925-142.789l-31.344-85.325
		c-3.483-9.287-2.903-19.735,1.161-28.442c4.063-9.287,11.609-15.672,20.896-19.155c9.288-3.482,19.735-2.902,28.442,1.162
		c8.707,4.063,15.091,11.028,18.574,19.735c8.126-4.063,17.413-5.805,26.12-3.482c9.869,2.321,17.995,8.126,23.218,16.833
		c5.224,8.707,6.966,18.574,4.644,28.441l-13.931,64.429l20.316,55.142c6.966-8.126,17.413-13.931,29.022-13.931
		c17.412,0,32.504,12.189,35.986,28.441c5.803-4.063,13.35-6.384,20.896-6.384c20.896,0,37.148,16.833,37.148,37.147v96.353
		c0,75.458-12.77,107.964-22.057,131.762c-5.225,13.35-9.289,23.218-9.289,37.148c0,4.643-4.061,8.706-8.705,8.706
		s-8.707-4.063-8.707-8.706c0-17.414,4.643-29.603,10.449-43.533c7.543-19.734,17.992-45.855,20.314-99.836
		c-5.805,3.482-12.189,5.224-19.154,5.224c-17.412,0-32.506-12.188-35.988-28.441c-5.804,4.062-13.35,6.385-20.895,6.385
		c-20.896,0-37.148-16.834-37.148-37.148v-49.337c-10.45,15.091-28.442,23.218-44.695,30.182l-12.77,40.051
		c43.533,8.707,61.527,65.591,62.107,67.912c1.16,4.643-1.16,9.287-5.804,11.028c-4.644,1.161-9.289-1.161-11.029-5.805
		c0-0.581-17.413-56.883-56.883-56.883c-2.902,0-5.224-1.161-6.965-3.482c-1.742-2.322-2.322-5.226-1.161-7.546l17.413-53.981
		c0.581-2.322,2.323-4.644,4.645-5.224c35.987-15.672,52.819-26.702,43.533-58.625l-23.799,8.708l0,0l-31.344,12.769
		c-8.126,3.483-14.51,8.126-19.735,16.252l-25.54,55.723c-2.902,9.867-2.902,13.931-2.902,25.54v1.159
		c1.742,62.108,15.672,94.033,27.281,120.152c7.545,16.833,13.931,31.344,13.931,48.758c0,4.643-4.063,8.706-8.707,8.706
		c-4.643,0-8.707-4.063-8.707-8.706c0-13.931-5.223-25.54-12.188-41.792c-11.609-26.12-27.281-61.527-29.603-127.118v-1.74
		C117.949,311.663,117.949,305.858,122.012,293.088z M173.091,19.701c-4.644-2.322-10.447-2.322-15.091-0.581
		c-5.224,1.741-9.287,5.224-11.028,10.448c-1.741,5.224-2.322,10.448-0.58,15.091l22.056,59.786l12.77-56.303
		c1.161-4.063,2.902-8.125,5.225-11.608L184.7,31.31C181.797,26.085,178.315,22.022,173.091,19.701z M325.748,319.209
		c0,11.028,8.705,19.734,19.734,19.734c10.447,0,19.154-8.126,19.736-17.993v-1.741c0-0.581,0-1.162,0-1.742V229.82
		c0-11.027-8.709-19.735-19.736-19.735c-11.029,0-19.734,8.708-19.734,19.735v67.332V319.209z M268.283,297.151
		c0,11.028,8.707,19.735,19.736,19.735c11.027,0,19.734-8.707,19.734-19.735V229.82v-22.057c0-11.028-8.707-19.735-19.734-19.735
		c-11.029,0-19.736,8.707-19.736,19.735V297.151z M241.002,185.707l-9.287-25.54l-7.546,31.924L241.002,185.707z M177.154,210.666
		l27.281-11.029l31.924-138.726c1.161-5.224,0.58-10.448-2.322-15.091c-2.902-4.644-7.545-7.546-12.189-8.707
		c-5.224-1.16-10.448-0.58-15.091,2.322c-4.643,2.901-7.546,7.545-8.707,12.189l-38.31,170.649
		C164.384,217.631,170.189,213.568,177.154,210.666z"/>
</g>
</svg>
