<?xml version="1.0" encoding="utf-8"?>
<!-- Generator: Adobe Illustrator 16.0.0, SVG Export Plug-In . SVG Version: 6.00 Build 0)  -->
<!DOCTYPE svg PUBLIC "-//W3C//DTD SVG 1.1//EN" "http://www.w3.org/Graphics/SVG/1.1/DTD/svg11.dtd">
<svg version="1.1" id="Layer_1" xmlns="http://www.w3.org/2000/svg" xmlns:xlink="http://www.w3.org/1999/xlink" x="0px" y="0px"
	 width="500px" height="500px" viewBox="0 0 500 500" enable-background="new 0 0 500 500" xml:space="preserve">
<g>
	<g>
		<g>
			<path fill="#231F20" d="M141.167,234.367c-17.396,0-31.539-14.151-31.539-31.539c0-17.396,14.151-31.547,31.539-31.547
				c17.396,0,31.548,14.151,31.548,31.547C172.715,220.216,158.563,234.367,141.167,234.367z M141.167,182.099
				c-11.428,0-20.729,9.3-20.729,20.729c0,11.428,9.3,20.729,20.729,20.729c11.429,0,20.729-9.3,20.729-20.729
				C161.896,191.399,152.596,182.099,141.167,182.099z"/>
			<path fill="#231F20" d="M231.296,234.367c-17.396,0-31.547-14.151-31.547-31.539c0-17.396,14.151-31.547,31.547-31.547
				s31.539,14.151,31.539,31.547C262.843,220.216,248.692,234.367,231.296,234.367z M231.296,182.099
				c-11.429,0-20.729,9.3-20.729,20.729c0,11.428,9.3,20.729,20.729,20.729c11.428,0,20.728-9.3,20.728-20.729
				C252.023,191.399,242.732,182.099,231.296,182.099z"/>
			<path fill="#231F20" d="M321.423,234.367c-17.396,0-31.547-14.151-31.547-31.539c0-17.396,14.151-31.547,31.547-31.547
				c17.396,0,31.549,14.151,31.549,31.547C352.972,220.216,338.819,234.367,321.423,234.367z M321.423,182.099
				c-11.429,0-20.728,9.3-20.728,20.729c0,11.428,9.299,20.729,20.728,20.729c11.43,0,20.729-9.3,20.729-20.729
				C342.152,191.399,332.853,182.099,321.423,182.099z"/>
		</g>
		<g>
			<path fill="#231F20" d="M103.541,453.4c-0.699,0-1.397-0.129-2.072-0.412c-2.024-0.834-3.341-2.811-3.341-4.994V364.17h-2.585
				C42.864,364.17,0,321.307,0,268.629V119.02c0-52.677,42.855-95.533,95.542-95.533h271.493c52.678,0,95.54,42.856,95.54,95.533
				v93.63c0,2.987-2.417,5.404-5.403,5.404c-2.988,0-5.405-2.417-5.405-5.404v-93.63c0-46.718-38.005-84.723-84.724-84.723H95.549
				c-46.719,0-84.724,38.005-84.724,84.723v149.617c0,46.719,38.005,84.723,84.724,84.723h7.991c2.987,0,5.405,2.418,5.405,5.404
				v76.17l79.993-79.99c1.012-1.014,2.393-1.584,3.823-1.584h20.696c2.988,0,5.405,2.418,5.405,5.404
				c0,2.988-2.417,5.406-5.405,5.406h-18.456l-87.639,87.646C106.327,452.854,104.946,453.4,103.541,453.4z"/>
			<path fill="#231F20" d="M434.096,476.514c-1.405,0-2.787-0.547-3.822-1.584l-54.083-54.09H269.692
				c-33.988,0-61.64-27.652-61.64-61.641c0-2.988,2.417-5.848,5.405-5.848h153.584c46.719,0,84.724-38.004,84.724-84.723v-55.987
				c0-1.743,0.844-3.381,2.257-4.394c1.421-1.012,3.244-1.277,4.891-0.722c25.009,8.497,41.811,31.94,41.811,58.325v93.348
				c0,33.844-27.426,61.416-61.222,61.641v50.26c0,2.186-1.318,4.16-3.342,4.996C435.502,476.385,434.794,476.514,434.096,476.514z
				 M219.144,364.17c2.675,25.885,24.327,45.852,50.549,45.852h108.738c1.438,0,2.811,0.57,3.822,1.582l46.438,46.438v-42.615
				c0-2.986,2.417-5.404,5.405-5.404h4.987c28.029,0,50.823-22.801,50.823-50.822v-93.342c0-19.131-10.714-36.381-27.332-45.032
				v47.811c0,52.678-42.854,95.543-95.54,95.543H219.144V364.17z"/>
			<path fill="#231F20" d="M367.042,364.17H213.458c-2.987,0-5.405-2.418-5.405-5.406c0-2.986,2.417-5.404,5.405-5.404h153.584
				c46.719,0,84.724-38.004,84.724-84.723V212.65c0-2.988,2.417-5.405,5.405-5.405c2.986,0,5.403,2.417,5.403,5.405v55.986
				C462.584,321.314,419.72,364.17,367.042,364.17z"/>
		</g>
	</g>
</g>
</svg>
