<?xml version="1.0" encoding="utf-8"?>
<!-- Generator: Adobe Illustrator 16.0.0, SVG Export Plug-In . SVG Version: 6.00 Build 0)  -->
<!DOCTYPE svg PUBLIC "-//W3C//DTD SVG 1.1//EN" "http://www.w3.org/Graphics/SVG/1.1/DTD/svg11.dtd">
<svg version="1.1" id="Layer_1" xmlns="http://www.w3.org/2000/svg" xmlns:xlink="http://www.w3.org/1999/xlink" x="0px" y="0px"
	 width="500px" height="500px" viewBox="0 0 500 500" enable-background="new 0 0 500 500" xml:space="preserve">
<g>
	<g>
		<path d="M221.693,393.35c-0.196-0.008-0.345-0.008-0.51-0.015c-9.688-0.447-12.165-9.532-14.783-19.148
			c-3.77-13.852-10.079-37.028-32.089-61.758c-38.07-42.812-49.263-103.612-27.865-151.299
			c19.148-42.663,61.38-67.134,115.856-67.134c54.477,0,96.707,24.471,115.855,67.134c21.398,47.687,10.215,108.488-27.863,151.3
			c-24.66,27.716-37.164,44.286-37.164,49.238c0,4.665-3.117,8.74-7.625,9.962C226.075,393.154,223.417,393.35,221.693,393.35z
			 M262.309,114.625c-46.667,0-81.131,19.517-97.035,54.954c-18.137,40.405-8.316,92.301,24.455,129.134
			c25.239,28.374,32.615,55.501,36.581,70.072c0.204,0.776,0.431,1.599,0.658,2.414c13.639-3.472,44.185-11.648,66.96-17.809
			c3.316-9.64,13.49-23.789,40.965-54.678c32.77-36.833,42.598-88.729,24.455-129.134
			C343.443,134.143,308.979,114.625,262.309,114.625z"/>
		<path d="M259.716,501.25c-4.608,0-8.802-3.104-9.986-7.775c-1.403-5.519,1.936-11.137,7.454-12.541l51.051-12.98
			c5.494-1.379,11.137,1.929,12.539,7.455c1.404,5.518-1.934,11.138-7.451,12.541l-51.051,12.979
			C261.417,501.14,260.555,501.25,259.716,501.25z"/>
		<path d="M219.858,453.805c-4.585,0-8.771-3.086-9.97-7.719c-1.435-5.519,1.874-11.146,7.383-12.573l90.908-23.601
			c5.533-1.474,11.146,1.882,12.572,7.384c1.434,5.518-1.873,11.145-7.385,12.571l-90.906,23.601
			C221.591,453.696,220.713,453.805,219.858,453.805z"/>
		<path d="M219.858,483.197c-4.585,0-8.771-3.086-9.97-7.719c-1.435-5.519,1.874-11.146,7.383-12.572l90.908-23.601
			c5.533-1.465,11.146,1.882,12.572,7.384c1.434,5.517-1.873,11.145-7.385,12.571l-90.906,23.601
			C221.591,483.089,220.713,483.197,219.858,483.197z"/>
		<path d="M219.858,424.411c-4.585,0-8.771-3.086-9.97-7.719c-1.435-5.519,1.874-11.146,7.383-12.573l90.908-23.6
			c5.533-1.475,11.146,1.872,12.572,7.384c1.434,5.517-1.873,11.145-7.385,12.571l-90.906,23.601
			C221.591,424.303,220.713,424.411,219.858,424.411z"/>
	</g>
	<path d="M88.734,238.617h-42.13c-5.698,0-10.314-4.616-10.314-10.314c0-5.699,4.624-10.315,10.314-10.315h42.13
		c5.699,0,10.315,4.616,10.315,10.315C99.049,234,94.425,238.617,88.734,238.617z"/>
	<path d="M112.28,150.688c-1.755,0-3.527-0.447-5.149-1.387l-36.479-21.069c-4.93-2.845-6.624-9.155-3.771-14.093
		c2.854-4.938,9.171-6.607,14.093-3.77l36.479,21.069c4.93,2.845,6.623,9.155,3.77,14.092
		C119.311,148.839,115.847,150.688,112.28,150.688z"/>
	<path d="M176.67,86.314c-3.559,0-7.023-1.85-8.943-5.158l-21.069-36.479c-2.845-4.931-1.152-11.248,3.771-14.093
		c4.922-2.845,11.24-1.161,14.093,3.77l21.069,36.479c2.845,4.93,1.152,11.248-3.77,14.093
		C180.198,85.867,178.427,86.314,176.67,86.314z"/>
	<path d="M264.6,62.753c-5.698,0-10.315-4.617-10.315-10.315V10.315C254.284,4.617,258.908,0,264.6,0
		c5.69,0,10.314,4.617,10.314,10.315v42.123C274.914,58.136,270.297,62.753,264.6,62.753z"/>
	<path d="M352.527,86.321c-1.756,0-3.527-0.446-5.15-1.387c-4.928-2.845-6.621-9.155-3.77-14.093l21.07-36.479
		c2.854-4.93,9.17-6.615,14.094-3.77c4.93,2.845,6.623,9.154,3.768,14.092l-21.066,36.479
		C359.549,84.472,356.086,86.321,352.527,86.321z"/>
	<path d="M416.918,150.696c-3.559,0-7.023-1.85-8.943-5.158c-2.846-4.929-1.152-11.248,3.77-14.093l36.48-21.069
		c4.914-2.845,11.24-1.16,14.094,3.77c2.844,4.93,1.15,11.248-3.773,14.093l-36.477,21.069
		C420.445,150.25,418.666,150.696,416.918,150.696z"/>
	<path d="M453.381,347.63c-1.754,0-3.527-0.445-5.15-1.387l-36.479-21.07c-4.93-2.844-6.623-9.154-3.768-14.093
		c2.854-4.93,9.17-6.631,14.092-3.77l36.479,21.068c4.93,2.846,6.623,9.154,3.77,14.094
		C460.414,345.78,456.938,347.63,453.381,347.63z"/>
	<path d="M176.655,380.613"/>
	<path d="M75.817,347.614c-3.558,0-7.023-1.851-8.943-5.157c-2.845-4.938-1.152-11.247,3.771-14.094l36.479-21.067
		c4.922-2.854,11.24-1.161,14.093,3.769c2.845,4.938,1.152,11.249-3.77,14.094l-36.479,21.067
		C79.344,347.175,77.573,347.614,75.817,347.614z"/>
</g>
</svg>
