<?xml version="1.0" encoding="utf-8"?>
<!-- Generator: Adobe Illustrator 19.1.0, SVG Export Plug-In . SVG Version: 6.00 Build 0)  -->
<svg version="1.1" id="Layer_1" xmlns="http://www.w3.org/2000/svg" xmlns:xlink="http://www.w3.org/1999/xlink" x="0px" y="0px"
	 viewBox="0 0 74.8 85" style="enable-background:new 0 0 74.8 85;" xml:space="preserve">
<style type="text/css">
	.st0{fill:none;stroke:#000000;stroke-width:3.6;stroke-miterlimit:10;}
	.st1{fill:none;stroke:#000000;stroke-width:3;stroke-linejoin:round;stroke-miterlimit:10;}
	.st2{fill:none;stroke:#000000;stroke-width:3;stroke-miterlimit:10;}
</style>
<g>
	<g>
		<path d="M71.9,50.2c-0.1-0.5-0.3-1-0.6-1.5L69.9,46l-1.5-2.8l-1.2-2.8L66,37.6v-1.1v-1.1v-1.1v-1.1c0-3-0.7-6-1.6-8.9
			c-0.8-2.9-2.2-5.6-3.8-8.1c-1.6-2.5-3.6-4.8-5.8-6.7c-2.2-2-4.8-3.6-7.6-4.9c-1-0.5-2.1-0.9-3.2-1.3s-2.2-0.7-3.3-0.9
			c-1.1-0.3-2.3-0.4-3.4-0.6c-1.2-0.1-2.3-0.2-3.5-0.2c-4.3,0-8.5,0.9-12.3,2.5c-3.8,1.6-7.2,3.9-10,6.8c-1,1-2,2.1-2.8,3.3l2.9,2.3
			C16.6,9.5,24.7,5,33.9,5c4.2,0,8.2,0.9,11.9,2.7C55.6,12.3,62,22.2,62,33.1v5.3l6.3,12c0.4,0.9,0.5,1.8,0.2,2.2
			c-0.3,0.5-0.9,0.9-1.9,0.9H62v12.5c0,2.5-2,4.5-4.5,4.6L47,68.9v8.5v4.1h4v-2.2v-2.1v-2.1V73l1.6,0.3l1.6,0.3l1.6,0.3l1.7,0.3
			c1.1,0,2.1-0.2,3.1-0.6c1-0.4,1.8-1,2.5-1.7s1.6-1.6,2-2.5c0.4-1,0.9-2,0.9-3.1v-2.3v-2.3v-2.3v-2.6h-0.3H66h0.3h0.3
			c0.5,0,1,0.1,1.5,0c0.5-0.1,0.9-0.2,1.4-0.4c0.4-0.2,0.8-0.4,1.1-0.7c0.3-0.3,0.6-0.6,0.9-1c0.2-0.4,0.4-0.8,0.5-1.3
			c0.1-0.4,0.2-0.9,0.2-1.4C72.1,51.2,72.1,50.7,71.9,50.2z"/>
		<path d="M7.4,41.5H3.5c0.4,2,0.8,2.6,1.3,3.7c0.8,1.9,1.9,3.9,3.1,5.6c1.2,1.7,3.2,3.5,4.2,5v6.4v6.4V75v6.5h4v-4.1V54.3l-0.8-0.7
			C11.6,50.3,8.9,46.5,7.4,41.5z"/>
	</g>
	<g>
		<path d="M54.2,34.3l-7.4-8.1c-0.6-0.7-1.7-0.7-2.3,0c-0.6,0.7-0.6,1.8,0,2.5l4.6,5H17c-0.9,0-1.6,0.8-1.6,1.8c0,1,0.7,1.8,1.6,1.8
			h32.1l-4.6,5c-0.6,0.7-0.6,1.8,0,2.5c0.3,0.3,0.7,0.5,1.1,0.5c0.4,0,0.8-0.2,1.1-0.5l7.4-8.1C54.8,36.2,54.8,35,54.2,34.3z"/>
	</g>
	<g>
		<path d="M12.2,81.5c0,1.1,0.9,2,2,2s2-0.9,2-2v-1.9c0-1.1-0.9-2-2-2s-2,0.9-2,2V81.5z"/>
	</g>
	<g>
		<path d="M3.7,42.9C4,44,5.1,44.6,6.1,44.3c1-0.3,1.6-1.4,1.3-2.4L6.9,40c-0.3-1.1-1.4-1.7-2.4-1.4c-1,0.3-1.6,1.4-1.3,2.4
			L3.7,42.9z"/>
	</g>
	<g>
		<path d="M47.1,81.5c0,1.1,0.9,2,2,2c1.1,0,2-0.9,2-2v-1.9c0-1.1-0.9-2-2-2c-1.1,0-2,0.9-2,2V81.5z"/>
	</g>
	<path class="st0" d="M17.5,35.6c-2.8,0-5.4-1.4-7.2-3.5s-3-5.2-3-8.5s1.1-6.4,3-8.5"/>
</g>
</svg>
