<?xml version="1.0" encoding="utf-8"?>
<!-- Generator: Adobe Illustrator 16.0.0, SVG Export Plug-In . SVG Version: 6.00 Build 0)  -->
<!DOCTYPE svg PUBLIC "-//W3C//DTD SVG 1.1//EN" "http://www.w3.org/Graphics/SVG/1.1/DTD/svg11.dtd">
<svg version="1.1" id="Layer_1" xmlns="http://www.w3.org/2000/svg" xmlns:xlink="http://www.w3.org/1999/xlink" x="0px" y="0px"
	 width="130.322px" height="104.256px" viewBox="34.839 27.872 130.322 104.256"
	 enable-background="new 34.839 27.872 130.322 104.256" xml:space="preserve">
<g>
	<path d="M165.161,51.04c0,1.6-1.296,2.896-2.896,2.896H37.735c-1.6,0-2.896-1.296-2.896-2.896V30.768
		c0-1.6,1.296-2.896,2.896-2.896h124.529c1.601,0,2.896,1.296,2.896,2.896L165.161,51.04L165.161,51.04z"/>
	<path d="M165.161,90.137c0,1.6-1.296,2.896-2.896,2.896H37.735c-1.6,0-2.896-1.296-2.896-2.896V69.863
		c0-1.6,1.296-2.896,2.896-2.896h124.529c1.601,0,2.896,1.296,2.896,2.896L165.161,90.137L165.161,90.137z"/>
	<path d="M165.161,129.232c0,1.6-1.296,2.896-2.896,2.896H37.735c-1.6,0-2.896-1.296-2.896-2.896V108.96
		c0-1.601,1.296-2.896,2.896-2.896h124.529c1.601,0,2.896,1.295,2.896,2.896L165.161,129.232L165.161,129.232z"/>
</g>
</svg>
