<?xml version="1.0" encoding="utf-8"?>
<!-- Generator: Adobe Illustrator 19.1.0, SVG Export Plug-In . SVG Version: 6.00 Build 0)  -->
<svg version="1.1" id="Layer_1" xmlns="http://www.w3.org/2000/svg" xmlns:xlink="http://www.w3.org/1999/xlink" x="0px" y="0px"
	 viewBox="0 0 74.8 85" style="enable-background:new 0 0 74.8 85;" xml:space="preserve">
<style type="text/css">
	.st0{fill:none;stroke:#000000;stroke-width:3.6;stroke-miterlimit:10;}
	.st1{fill:none;stroke:#000000;stroke-width:3;stroke-linejoin:round;stroke-miterlimit:10;}
	.st2{fill:none;stroke:#000000;stroke-width:3;stroke-miterlimit:10;}
</style>
<g>
	<g>
		<path d="M72.4,32.6c0-11.2-4.9-21.7-13.4-29c-0.7-0.6-1.8-0.5-2.4,0.2c-0.6,0.7-0.5,1.8,0.2,2.4C64.6,12.8,69,22.4,69,32.6
			c0,19.2-15.6,34.8-34.8,34.8c-9.2,0-17.8-3.5-24.3-9.9c-0.7-0.6-1.7-0.6-2.4,0c-0.6,0.7-0.6,1.7,0,2.4c6.8,6.6,15.6,10.4,25,10.8
			v9.1H16.9c-0.9,0-1.7,0.8-1.7,1.7s0.8,1.7,1.7,1.7h34.6c0.9,0,1.7-0.8,1.7-1.7s-0.8-1.7-1.7-1.7H35.9v-9.1
			C56.2,69.8,72.4,53.1,72.4,32.6z"/>
	</g>
	<g>
		<path d="M3.8,61C3,61.7,3,63,3.7,63.7c0.7,0.7,2,0.7,2.7-0.1l3.2-3.2c0.8-0.8,0.8-2,0.1-2.7c-0.7-0.7-2-0.7-2.7,0.1L3.8,61z"/>
	</g>
	<path d="M65.1,32.6c0,17-13.8,30.7-30.7,30.7S3.6,49.6,3.6,32.6S17.4,1.9,34.3,1.9S65.1,15.6,65.1,32.6z M18.4,31.1
		c0.1-4.3,0.9-8.4,2.1-12.2l-10.3,0c-2.1,3.6-3.4,7.8-3.6,12.2H18.4z M32.8,18.9h-9.1c-1.4,3.8-2.2,7.9-2.3,12.2h11.5L32.8,18.9
		L32.8,18.9z M32.8,4.9c-3.2,2.9-6,6.6-7.9,10.9h7.9V4.9z M12.2,15.8h9.4c1.6-3.8,3.8-7.3,6.3-10.2C21.4,7.1,15.9,11,12.2,15.8z
		 M62,31.1c-0.2-4.4-1.5-8.6-3.6-12.2l-10.3,0c1.3,3.8,2,7.9,2.1,12.2H62z M35.8,31.1h11.5c-0.2-4.3-1-8.4-2.3-12.2h-9.1V31.1z
		 M35.8,15.8h7.9c-2-4.3-4.7-8-7.9-10.9V15.8z M40.7,5.6c2.5,2.9,4.7,6.4,6.3,10.2h9.4C52.8,11,47.2,7.1,40.7,5.6z M6.6,34.1
		c0.2,4.4,1.5,8.6,3.6,12.2l10.3,0c-1.3-3.8-2-7.9-2.1-12.2L6.6,34.1L6.6,34.1z M32.8,34.1H21.4c0.2,4.3,1,8.4,2.3,12.2h9.1V34.1z
		 M32.8,49.4h-7.9c2,4.3,4.7,8,7.9,10.9L32.8,49.4L32.8,49.4z M27.9,59.6c-2.5-2.9-4.7-6.4-6.3-10.2h-9.4
		C15.9,54.2,21.4,58.1,27.9,59.6z M50.3,34.1c-0.1,4.3-0.9,8.4-2.1,12.2l10.3,0c2.1-3.6,3.4-7.8,3.6-12.2L50.3,34.1L50.3,34.1z
		 M35.8,46.3H45c1.4-3.8,2.2-7.9,2.3-12.2H35.8V46.3z M35.8,60.3c3.2-2.9,6-6.6,7.9-10.9h-7.9V60.3z M56.4,49.4H47
		c-1.6,3.8-3.8,7.3-6.3,10.2C47.2,58.1,52.8,54.2,56.4,49.4z"/>
</g>
</svg>
