<?xml version="1.0" encoding="utf-8"?>
<!-- Generator: Adobe Illustrator 19.1.0, SVG Export Plug-In . SVG Version: 6.00 Build 0)  -->
<svg version="1.1" id="Layer_1" xmlns="http://www.w3.org/2000/svg" xmlns:xlink="http://www.w3.org/1999/xlink" x="0px" y="0px"
	 viewBox="0 0 74.8 85" style="enable-background:new 0 0 74.8 85;" xml:space="preserve">
<style type="text/css">
	.st0{fill:none;stroke:#000000;stroke-width:3.6;stroke-miterlimit:10;}
	.st1{fill:none;stroke:#000000;stroke-width:3;stroke-linejoin:round;stroke-miterlimit:10;}
	.st2{fill:none;stroke:#000000;stroke-width:3;stroke-miterlimit:10;}
</style>
<g>
	<g>
		<rect x="8" y="34" class="st1" width="58.9" height="39.7"/>
		<polygon class="st1" points="1.5,34 37.4,17.4 73.3,34 		"/>
		<path class="st1" d="M13.4,73.4V46.2c0-2.3,1.9-4.1,4.1-4.1l0,0c2.3,0,4.1,1.9,4.1,4.1v27.2"/>
		<path class="st1" d="M26.4,73.4V46.2c0-2.3,1.9-4.1,4.1-4.1l0,0c2.3,0,4.1,1.9,4.1,4.1v27.2"/>
		<path class="st1" d="M39.5,73.4V46.2c0-2.3,1.9-4.1,4.1-4.1l0,0c2.3,0,4.1,1.9,4.1,4.1v27.2"/>
		<path class="st1" d="M52.5,73.4V46.2c0-2.3,1.9-4.1,4.1-4.1l0,0c2.3,0,4.1,1.9,4.1,4.1v27.2"/>
	</g>
	<g>
		<g>
			<g>
				<g>
					<path d="M67.6,80.3H7.2c-0.5,0-0.9-0.6-0.9-1.3c0-0.7,0.4-1.3,0.9-1.3h60.3c0.5,0,0.9,0.6,0.9,1.3S68.1,80.3,67.6,80.3z"/>
				</g>
			</g>
		</g>
	</g>
	<g>
		<g>
			<g>
				<g>
					<path d="M67.6,84.7H7.2c-0.5,0-0.9-0.6-0.9-1.3c0-0.7,0.4-1.3,0.9-1.3h60.3c0.5,0,0.9,0.6,0.9,1.3S68.1,84.7,67.6,84.7z"/>
				</g>
			</g>
		</g>
	</g>
	<g>
		<path d="M36,16.1c0,1.1,0.6,2,1.4,2s1.4-0.9,1.4-2V2.3c0-1.1-0.6-2-1.4-2S36,1.2,36,2.3V16.1z"/>
	</g>
	<g>
		<path class="st2" d="M37.4,1.7l8.1,3.6c1,0.4,1,1.2,0,1.6l-7.9,3.2"/>
	</g>
</g>
</svg>
