<svg xmlns="http://www.w3.org/2000/svg" xmlns:xlink="http://www.w3.org/1999/xlink" version="1.1" x="0px" y="0px" viewBox="0 0 100 100" enable-background="new 0 0 100 100" xml:space="preserve"><g><path d="M16.091,32.827v35.819c0,5.789,1.031,6.933,3.345,9.631c2.308,2.711,11.826,12.739,13.112,13.896   C33.833,93.323,36.403,95,38.203,95h16.788c2.304,0,4.168-1.866,4.168-4.167V32.827c0-2.299-1.864-4.165-4.168-4.165h-34.73   C17.958,28.662,16.091,30.528,16.091,32.827z M53.411,90.668l-1.45-0.043c0,0-9.889,0-12.407,0c-2.522,0-3.555-3.849-3.555-5.788   c0-1.922,0-6.125,0-7.557c0-1.456-0.864-2.803-2.409-2.803c-1.539,0-4.047,0-8.001,0c-3.948,0-5.126-3.512-5.126-5.965   c0-2.441,0-11.962,0-11.962v-4.234V33.899h34.529v56.713L53.411,90.668z"></path><path d="M77.492,59.09c0,0-12.756,0-15.273,0v12.237h1.891h16.418c2.301,0,4.167-1.86,4.167-4.154V9.159   C84.694,6.868,82.828,5,80.527,5H45.798c-2.307,0-4.167,1.868-4.167,4.159v15.473v1.372h4.367V11.759h34.529V59.09H77.492z"></path><path d="M64.063,36.169c-0.584,0.44-1.196,0.838-1.839,1.206v-5.941c1.304-1.294,2.338-2.946,3.118-4.964l-5.495-2.256   l11.851-5.441l2.912,11.51l-4.864-1.988C68.443,31.634,66.548,34.267,64.063,36.169z"></path></g></svg>