<svg xmlns="http://www.w3.org/2000/svg" xmlns:xlink="http://www.w3.org/1999/xlink" version="1.1" x="0px" y="0px" viewBox="0 0 100 100" enable-background="new 0 0 100 100" xml:space="preserve"><g><circle cx="52" cy="29.9" r="7.5"></circle><circle cx="86.8" cy="51.6" r="8.2"></circle><circle cx="13.2" cy="53.4" r="8.2"></circle><path d="M25,85.4l-6.3-5.6c-0.2-0.1-0.3-0.3-0.3-0.5l-2-9.4v0l-0.1-0.4c-0.1-0.5,0.2-1,0.7-1.1c0.5-0.1,1,0.2,1.1,0.7l2,9.5   l0.1,0.1V68.5c0-2.7-2.2-4.8-4.8-4.8h-4.6c-2.7,0-4.8,2.2-4.8,4.8v19.5h12.2l-3.9-3c-0.8-0.6-1.5-1.5-1.8-2.5l-2.8-8.5   c-0.2-0.5,0.1-1,0.6-1.2c0.4-0.1,0.9,0,1.1,0.4c0,0.1,0.1,0.1,0.1,0.2c0,0,0,0,0,0l2.8,8.5c0.2,0.6,0.6,1.2,1.1,1.5l4.8,3.7v0   l1.9,1.4c0.5,0.4,1,0.6,1.5,0.7c1,0.2,1.7,0,2.1-0.5c0.4-0.4,0.5-1,0.3-1.7C25.9,86.5,25.5,85.9,25,85.4z"></path><path d="M67.5,36c0.1,0.1,1.6,1.2,3,1.9c-0.5,0.7-0.8,1.5-0.8,2.4c0,2.2,1.8,4,4,4s4-1.8,4-4c0-0.3,0-0.7-0.1-1   C85,39.1,91,34,91,27.6c0-6.4-6.2-11.7-13.8-11.7s-13.8,5.2-13.8,11.7C63.4,30.8,64.8,33.8,67.5,36z M73.7,42.1   c-1,0-1.8-0.8-1.8-1.8c0-0.6,0.3-1.2,0.8-1.5c0,0,0.1-0.1,0.1-0.1c0.8,0.2,1.6,0.4,2.4,0.5c0.2,0.3,0.4,0.7,0.4,1.1   C75.5,41.3,74.7,42.1,73.7,42.1z M77.2,18.1c6.4,0,11.6,4.3,11.6,9.5s-5.2,9.5-11.6,9.5c-1.9,0-3.7-0.4-5.4-1.1c0,0,0,0-0.1,0   c-1-0.4-2.4-1.4-2.8-1.7c-2.2-1.8-3.3-4.2-3.3-6.7C65.6,22.4,70.8,18.1,77.2,18.1z"></path><path d="M70.8,29.5L70.8,29.5c0.9,0,1.6-0.7,1.6-1.6s-0.7-1.6-1.6-1.6h0c-0.9,0-1.6,0.7-1.6,1.6S69.9,29.5,70.8,29.5z"></path><path d="M77.2,29.5c0.9,0,1.6-0.7,1.6-1.6s-0.7-1.6-1.6-1.6s-1.6,0.7-1.6,1.6S76.3,29.5,77.2,29.5z"></path><path d="M83.7,29.5c0.9,0,1.6-0.7,1.6-1.6s-0.7-1.6-1.6-1.6s-1.6,0.7-1.6,1.6S82.8,29.5,83.7,29.5z"></path><path d="M10.6,32.2h17.9c1,1.8,3,4.3,6.3,4.5c0,0,0,0,0.1,0c0,0,0,0,0,0c0.6,0,1.1-0.5,1.1-1.1c0-0.2-0.1-0.4-0.2-0.6   c-0.1-0.3-0.5-1.3-0.6-2.8h3.4c0.6,0,1.1-0.5,1.1-1.1V11.7c0-0.6-0.5-1.1-1.1-1.1h-28c-0.6,0-1.1,0.5-1.1,1.1v19.4   C9.5,31.7,10,32.2,10.6,32.2z M11.7,12.8h25.8V30h-3.4c-0.6,0-1.1,0.5-1.1,1.1c0,1.2,0.1,2.2,0.2,3c-1.6-0.8-2.6-2.4-3.1-3.4   c-0.2-0.4-0.6-0.6-1-0.6H11.7V12.8z"></path><path d="M18,19.9c-0.9,0-1.6,0.7-1.6,1.6S17.2,23,18,23s1.6-0.7,1.6-1.6S18.9,19.9,18,19.9z"></path><path d="M24.4,19.9c-0.9,0-1.6,0.7-1.6,1.6s0.7,1.6,1.6,1.6s1.6-0.7,1.6-1.6S25.2,19.9,24.4,19.9z"></path><path d="M30.9,23c0.9,0,1.6-0.7,1.6-1.6s-0.7-1.6-1.6-1.6s-1.6,0.7-1.6,1.6S30.1,23,30.9,23z"></path><path d="M71.9,48.7c0,1.6,1.3,2.9,2.9,2.9c1.6,0,2.9-1.3,2.9-2.9s-1.3-2.9-2.9-2.9C73.2,45.8,71.9,47.1,71.9,48.7z M75.5,48.7   c0,0.4-0.3,0.7-0.7,0.7c-0.4,0-0.7-0.3-0.7-0.7c0-0.4,0.3-0.7,0.7-0.7C75.2,48,75.5,48.3,75.5,48.7z"></path><path d="M27.2,43.1c-0.5-0.4-1.1-0.5-1.7-0.5c-0.3,0-0.5,0-0.8,0.1c-0.8,0.1-1.5,1-1.5,1c0,0,0,0,0,0c-1,1.3-0.8,3.2,0.5,4.2   l7.6,8.4c2.9-0.9,6.1-1.5,9.4-2l1.8-2.4V54c2.9-0.3,5.8-0.5,8.9-0.5c3.6,0,7,0.2,10.3,0.6v-2.7l2.1,2.7l-0.3,0.2   c2.4,0.4,4.7,0.9,6.9,1.5c0.5-1.2,0.3-2.6-0.6-3.7L69,51.1l-7.5-9.7c-0.4-0.5-1-0.9-1.6-1.2c-0.7-0.5-1.6-0.8-2.5-0.8h-0.6L54,47.6   l-1.2-5.8l0.7-2.3h-2.8l0.8,2.3l-1.1,5.7l-2.8-8.2h-0.6c-1.1,0-2.1,0.4-2.8,1.1c-0.4,0.2-0.8,0.5-1.1,0.9l-7.2,9.5L27.2,43.1z    M52.2,53.1L52.2,53.1L52.2,53.1L52.2,53.1L52.2,53.1z"></path><path d="M89.1,62h-4.6c-2.7,0-4.8,2.2-4.8,4.8v1.6l3.1-2.6c0.4-0.3,1-0.3,1.4,0.1c0.3,0.4,0.3,1-0.1,1.4l-0.3,0.3l0,0l-7.4,6.2   C76.2,73.9,76,74,75.8,74l-8.3,0.5c-0.8,0-1.5,0.3-2,0.7c-0.5,0.4-0.8,0.9-0.8,1.5c0,0.7,0.4,1.3,1.3,1.7c0.5,0.2,1,0.4,1.6,0.4   l8.4,0c0.7,0,1.4-0.1,1.9-0.5l7.4-5c0.1-0.1,0.2-0.1,0.2-0.1v0c0.4-0.1,0.8,0,1.1,0.4c0.3,0.4,0.2,1-0.3,1.3l-6.7,4.5v6.9h14.3   V66.8C93.9,64.2,91.8,62,89.1,62z"></path><path d="M76,80.8l-8.4,0c-0.9,0-1.7-0.2-2.5-0.6c-1.5-0.8-2.3-2-2.3-3.4c0-1.1,0.5-2.2,1.5-3c0.8-0.7,1.9-1.1,3.1-1.2l8-0.5l2.4-2   v-3.2c0-2.1,1-4,2.5-5.3c-6.7-3.9-17.1-6.4-28.8-6.4c-13.4,0-25.2,3.3-31.6,8.3c1.4,1.2,2.3,3.1,2.3,5.1v11.9l4,3.5   c0.3,0.3,0.6,0.6,0.9,0.9c6.5,2.7,15,4.3,24.4,4.3c10.3,0,19.6-1.9,26.3-5.1v-3.5c-0.5,0.2-1,0.3-1.6,0.3   C76.1,80.8,76.1,80.8,76,80.8z"></path></g></svg>