<svg xmlns="http://www.w3.org/2000/svg" xmlns:xlink="http://www.w3.org/1999/xlink" version="1.1" x="0px" y="0px" viewBox="0 0 100 100" enable-background="new 0 0 100 100" xml:space="preserve"><path d="M61.136,84.077c-1.693,2.056-3.894,3.44-6.466,4.144c-1.121,0.307-1.622,0.896-1.571,2.06  c0.05,1.143-0.006,2.29-0.009,3.435c-0.002,1.023-0.523,1.568-1.53,1.594c-1.232,0.031-2.466,0.03-3.698,0.008  c-1.081-0.02-1.589-0.632-1.601-1.687c-0.01-0.837-0.015-1.674-0.023-2.51c-0.019-1.844-0.077-1.922-1.854-2.204  c-2.272-0.36-4.501-0.878-6.581-1.886c-1.634-0.792-1.801-1.2-1.333-2.913c0.348-1.275,0.7-2.549,1.095-3.81  c0.459-1.464,0.854-1.648,2.201-0.946c2.299,1.198,4.744,1.869,7.3,2.188c1.651,0.206,3.262,0.039,4.791-0.629  c2.849-1.245,3.297-4.552,0.889-6.533c-0.82-0.675-1.75-1.172-2.725-1.601c-2.497-1.098-5.107-1.938-7.467-3.351  c-3.83-2.293-6.258-5.44-5.974-10.102c0.321-5.27,3.3-8.556,8.131-10.313c0.966-0.351,1.464-0.527,1.724-0.851V30.735V20.642  c0-0.089,0.012-0.175,0.03-0.258v-0.05l-4.933,0c-0.941,0-1.42-0.266-1.544-0.494c-0.124-0.228-0.089-0.774,0.42-1.566l8.022-12.47  c0.146-0.227,0.304-0.426,0.469-0.591c0.276-0.276,0.712-0.594,1.217-0.54c0.503,0.054,1.019,0.456,1.454,1.132l8.022,12.47  c0.363,0.565,0.671,1.341,0.341,1.671c-0.091,0.091-0.466,0.389-1.465,0.389l-4.927,0v0.067c0.016,0.078,0.025,0.158,0.025,0.241  v7.598v19.215c0.231,0.532,0.794,0.628,2.188,0.846c1.797,0.281,3.513,0.811,5.175,1.544c0.917,0.404,1.262,1.044,0.981,2.01  c-0.419,1.438-0.808,2.885-1.268,4.309c-0.436,1.348-0.866,1.543-2.159,0.917c-2.6-1.259-5.328-1.782-8.203-1.626  c-0.755,0.041-1.49,0.142-2.187,0.447c-2.483,1.086-2.885,3.824-0.773,5.516c1.068,0.856,2.291,1.475,3.56,2.001  c2.197,0.91,4.411,1.783,6.498,2.938C64.026,70.039,65.819,78.388,61.136,84.077z M25.754,57.644  c-1.655-0.916-3.411-1.608-5.153-2.33c-1.006-0.417-1.976-0.908-2.823-1.587c-1.675-1.342-1.356-3.513,0.613-4.374  c0.553-0.242,1.136-0.322,1.734-0.355c2.28-0.124,4.444,0.292,6.506,1.29c1.026,0.497,1.367,0.341,1.712-0.728  c0.365-1.13,0.674-2.277,1.006-3.418c0.223-0.766-0.051-1.274-0.778-1.594c-1.318-0.581-2.679-1.002-4.104-1.225  c-1.106-0.173-1.552-0.249-1.736-0.671v-0.604v-7.472v-2.53c0-0.066-0.007-0.13-0.02-0.191v-0.053h3.907  c0.792,0,1.089-0.236,1.162-0.308c0.262-0.262,0.018-0.878-0.27-1.325l-6.362-9.89c-0.345-0.536-0.754-0.855-1.153-0.898  c-0.401-0.043-0.746,0.209-0.965,0.428c-0.131,0.131-0.256,0.289-0.372,0.469l-6.362,9.89c-0.404,0.628-0.432,1.061-0.333,1.242  c0.099,0.181,0.478,0.391,1.225,0.391l3.912,0v0.04c-0.015,0.066-0.024,0.134-0.024,0.205v2.53v7.472v1.171  c-0.206,0.257-0.601,0.396-1.367,0.675c-3.831,1.393-6.194,4-6.448,8.179c-0.225,3.697,1.701,6.193,4.738,8.011  c1.872,1.121,3.941,1.787,5.922,2.658c0.774,0.34,1.511,0.734,2.161,1.269c1.91,1.572,1.555,4.195-0.705,5.182  c-1.213,0.53-2.49,0.662-3.799,0.499c-2.027-0.253-3.967-0.786-5.79-1.735c-1.068-0.557-1.382-0.411-1.746,0.75  c-0.313,1-0.592,2.011-0.868,3.022c-0.371,1.359-0.239,1.682,1.057,2.31c1.649,0.8,3.417,1.21,5.219,1.496  c1.409,0.223,1.455,0.286,1.47,1.748c0.007,0.664,0.011,1.327,0.018,1.991c0.01,0.837,0.413,1.322,1.27,1.338  c0.977,0.018,1.956,0.018,2.933-0.006c0.799-0.02,1.211-0.453,1.213-1.264c0.002-0.908,0.047-1.818,0.007-2.724  c-0.041-0.924,0.357-1.39,1.246-1.634c2.04-0.559,3.786-1.656,5.128-3.287C32.447,67.184,31.025,60.563,25.754,57.644z   M85.95,57.644c-1.655-0.916-3.411-1.608-5.153-2.33c-1.006-0.417-1.976-0.908-2.823-1.587c-1.675-1.342-1.356-3.513,0.613-4.374  c0.553-0.242,1.136-0.322,1.734-0.355c2.28-0.124,4.444,0.292,6.506,1.29c1.026,0.497,1.367,0.341,1.712-0.728  c0.365-1.13,0.674-2.277,1.006-3.418c0.223-0.766-0.051-1.274-0.778-1.594c-1.318-0.581-2.679-1.002-4.104-1.225  c-1.106-0.173-1.552-0.249-1.736-0.671v-0.604v-7.472v-2.53c0-0.066-0.007-0.13-0.02-0.191v-0.053h3.907  c0.792,0,1.089-0.236,1.162-0.308c0.262-0.262,0.018-0.878-0.27-1.325l-6.362-9.89c-0.345-0.536-0.754-0.855-1.153-0.898  c-0.401-0.043-0.746,0.209-0.966,0.428c-0.131,0.131-0.256,0.289-0.372,0.469l-6.362,9.89c-0.404,0.628-0.432,1.061-0.333,1.242  c0.099,0.181,0.478,0.391,1.225,0.391l3.912,0v0.04c-0.015,0.066-0.024,0.134-0.024,0.205v2.53v7.472v1.171  c-0.206,0.257-0.601,0.396-1.367,0.675c-3.831,1.393-6.194,4-6.448,8.179c-0.225,3.697,1.701,6.193,4.738,8.011  c1.872,1.121,3.941,1.787,5.922,2.658c0.774,0.34,1.511,0.734,2.161,1.269c1.91,1.572,1.555,4.195-0.705,5.182  c-1.213,0.53-2.49,0.662-3.799,0.499c-2.027-0.253-3.967-0.786-5.79-1.735c-1.068-0.557-1.382-0.411-1.746,0.75  c-0.313,1-0.592,2.011-0.868,3.022c-0.371,1.359-0.239,1.682,1.057,2.31c1.649,0.8,3.417,1.21,5.219,1.496  c1.409,0.223,1.455,0.286,1.47,1.748c0.007,0.664,0.011,1.327,0.018,1.991c0.01,0.837,0.413,1.322,1.27,1.338  c0.977,0.018,1.956,0.018,2.933-0.006c0.799-0.02,1.211-0.453,1.213-1.264c0.002-0.908,0.047-1.818,0.007-2.724  c-0.041-0.924,0.357-1.39,1.246-1.634c2.04-0.559,3.786-1.656,5.128-3.287C92.644,67.184,91.222,60.563,85.95,57.644z"></path></svg>