<svg xmlns="http://www.w3.org/2000/svg" xmlns:xlink="http://www.w3.org/1999/xlink" version="1.1" x="0px" y="0px" viewBox="0 0 80 80" enable-background="new 0 0 80 80" xml:space="preserve"><g><path d="M24.1,46.9c5.2,5.2,12.1,7.9,19,7.9s13.8-2.6,19-7.9v0c0,0,0,0,0,0c0,0,0,0,0,0c5.1-5.1,7.9-11.8,7.9-19   c0-7.2-2.8-13.9-7.9-19c0,0,0,0,0,0c0,0,0,0,0,0c-10.5-10.5-27.5-10.5-38,0C13.6,19.4,13.6,36.5,24.1,46.9z M32.4,39.8   c2.8,2.7,5.8,4.9,8.7,6.5c-6.1,2.6-11.8,2.8-15.3,0L32.4,39.8z M60.2,46.3c-3.5,2.8-9.2,2.7-15.3,0c3-1.7,6-3.9,8.7-6.5L60.2,46.3z    M43.1,45.4c-3.2-1.6-6.4-3.9-9.4-6.8l9.4-9.4l9.4,9.4C49.5,41.5,46.3,43.8,43.1,45.4z M32.4,50c3.3,0,6.9-0.9,10.7-2.7   c3.7,1.8,7.4,2.7,10.7,2.7c0.5,0,1,0,1.5-0.1c-4,2.2-8.4,3.2-12.8,3.1c-4-0.1-8-1.1-11.6-3.1C31.4,50,31.9,50,32.4,50z M61.4,45.1   l-6.5-6.5c2.7-2.8,4.9-5.8,6.5-8.7C64.1,35.9,64.3,41.6,61.4,45.1z M53.7,37.4l-9.4-9.4l9.4-9.4c2.9,3,5.2,6.2,6.8,9.4   C58.9,31.1,56.6,34.4,53.7,37.4z M54.9,17.3l6.5-6.5c2.8,3.5,2.7,9.2,0,15.3C59.8,23.1,57.6,20.1,54.9,17.3z M53.7,16.1   c-2.8-2.7-5.7-4.9-8.7-6.5c1.3-0.5,2.5-1,3.8-1.3c1.8-0.5,3.4-0.7,4.9-0.7c2.6,0,4.8,0.7,6.5,2L53.7,16.1z M52.5,17.3l-9.4,9.4   l-9.4-9.4c2.9-2.8,6.2-5.2,9.4-6.8C46.3,12.1,49.5,14.4,52.5,17.3z M32.4,16.1l-6.5-6.5c1.7-1.4,4-2.1,6.6-2.1c2.6,0,5.6,0.7,8.7,2   C38.1,11.2,35.2,13.5,32.4,16.1z M24.7,10.8l6.5,6.5c-2.7,2.8-4.9,5.8-6.5,8.7C22.1,20,21.9,14.3,24.7,10.8z M32.4,18.5l9.4,9.4   l-9.4,9.4c-2.9-3-5.2-6.2-6.8-9.4C27.2,24.7,29.5,21.5,32.4,18.5z M31.2,38.6l-6.5,6.5c-2.8-3.5-2.7-9.2,0-15.3   C26.4,32.8,28.5,35.8,31.2,38.6z M68.2,27.9c0,4.3-1.1,8.5-3.2,12.2c0.4-3.6-0.6-7.9-2.7-12.2c2.1-4.3,3-8.6,2.7-12.2   C67.1,19.4,68.2,23.6,68.2,27.9z M43.1,2.8c4.2,0,8.3,1,12.1,3.1c-2.1-0.2-4.4,0-6.8,0.7c-1.8,0.5-3.5,1.1-5.3,2   c-4.3-2.1-8.5-3-12.2-2.6C34.7,3.8,38.9,2.8,43.1,2.8z M23.7,27.9c-2.1,4.3-3,8.6-2.7,12.2c-4.2-7.6-4.2-16.8,0-24.4   C20.7,19.4,21.6,23.6,23.7,27.9z"></path><path d="M65.2,50.1c-6.8,6.8-15.9,9.8-24.8,9c-0.1,0-0.1,0-0.2,0c0,0-0.1,0-0.1,0c-7-0.7-13.8-3.7-19.1-9   C8.7,37.9,8.7,18,20.9,5.8c0.3-0.3,0.3-0.9,0-1.2c-0.3-0.3-0.9-0.3-1.2,0c-12.9,12.9-12.9,33.8,0,46.7c5.5,5.5,12.4,8.6,19.6,9.4   v6.9c-5.4,0-10.5,0.5-14.4,1.4c-4.6,1-6.9,2.5-6.9,4.2c0,1.8,2.3,3.2,6.9,4.2c4.1,0.9,9.5,1.4,15.3,1.4c5.8,0,11.2-0.5,15.3-1.4   c4.6-1,6.9-2.5,6.9-4.2c0-1.8-2.3-3.2-6.9-4.2c-3.9-0.9-9-1.4-14.4-1.4v-6.7c0.7,0,1.4,0.1,2.1,0.1c8.5,0,16.9-3.2,23.4-9.7   c0.3-0.3,0.3-0.9,0-1.2C66.1,49.7,65.5,49.7,65.2,50.1z M60.6,73.3c0,1.3-7.2,3.9-20.5,3.9c-13.2,0-20.5-2.6-20.5-3.9   c0-1.3,6.9-3.8,19.6-3.9v3.5c0,0.5,0.4,0.9,0.9,0.9s0.9-0.4,0.9-0.9v-3.5C53.7,69.4,60.6,72,60.6,73.3z"></path></g></svg>