<svg xmlns:sketch="http://www.bohemiancoding.com/sketch/ns" xmlns="http://www.w3.org/2000/svg" xmlns:xlink="http://www.w3.org/1999/xlink" version="1.1" x="0px" y="0px" viewBox="0 0 100 100" enable-background="new 0 0 100 100" xml:space="preserve"><title>chart v3</title><desc>Created with Sketch.</desc><g sketch:type="MSPage"><g sketch:type="MSArtboardGroup"><circle sketch:type="MSShapeGroup" cx="22.5" cy="10.5" r="1.5"></circle><circle sketch:type="MSShapeGroup" cx="17.5" cy="10.5" r="1.5"></circle><circle sketch:type="MSShapeGroup" cx="12.5" cy="10.5" r="1.5"></circle><path d="M92,96H8c-2.2,0-4-1.8-4-4V8c0-2.2,1.8-4,4-4h84c2.2,0,4,1.8,4,4v84C96,94.2,94.2,96,92,96z M8,6C6.9,6,6,6.9,6,8v84    c0,1.1,0.9,2,2,2h84c1.1,0,2-0.9,2-2V8c0-1.1-0.9-2-2-2H8z"></path><path d="M77.5,74.4H21c-0.3,0-0.5-0.2-0.5-0.5s0.2-0.5,0.5-0.5h56.5c0.3,0,0.5,0.2,0.5,0.5S77.8,74.4,77.5,74.4z"></path><path d="M31.4,78.8H22c-0.3,0-0.5-0.2-0.5-0.5s0.2-0.5,0.5-0.5h9.4c0.3,0,0.5,0.2,0.5,0.5S31.7,78.8,31.4,78.8z"></path><path d="M53.7,78.8h-9.4c-0.3,0-0.5-0.2-0.5-0.5s0.2-0.5,0.5-0.5h9.4c0.3,0,0.5,0.2,0.5,0.5S54,78.8,53.7,78.8z"></path><path d="M77.4,78.8H68c-0.3,0-0.5-0.2-0.5-0.5s0.2-0.5,0.5-0.5h9.4c0.3,0,0.5,0.2,0.5,0.5S77.7,78.8,77.4,78.8z"></path><path d="M29.2,81.8H22c-0.3,0-0.5-0.2-0.5-0.5s0.2-0.5,0.5-0.5h7.2c0.3,0,0.5,0.2,0.5,0.5S29.5,81.8,29.2,81.8z"></path><path d="M51.5,81.8h-7.2c-0.3,0-0.5-0.2-0.5-0.5s0.2-0.5,0.5-0.5h7.2c0.3,0,0.5,0.2,0.5,0.5S51.8,81.8,51.5,81.8z"></path><path d="M75.3,81.8H68c-0.3,0-0.5-0.2-0.5-0.5s0.2-0.5,0.5-0.5h7.2c0.3,0,0.5,0.2,0.5,0.5S75.5,81.8,75.3,81.8z"></path><rect x="5" y="14" width="90" height="2"></rect><path sketch:type="MSShapeGroup" fill="none" stroke="#000000" stroke-width="2" d="M0,0"></path><path d="M70.6,24.2H33.8c-0.6,0-1-0.4-1-1s0.4-1,1-1h36.8c0.6,0,1,0.4,1,1S71.2,24.2,70.6,24.2z"></path><path d="M60.4,29.3H43.3c-0.6,0-1-0.4-1-1s0.4-1,1-1h17.1c0.6,0,1,0.4,1,1S61,29.3,60.4,29.3z"></path><path d="M27.5,70.5h-7v-18h7V70.5z M21.5,69.5h5v-16h-5V69.5z"></path><path d="M37.3,70.5h-7V61h7V70.5z M31.3,69.5h5V62h-5V69.5z"></path><path d="M46.8,70.5h-7v-7.4h7V70.5z M40.8,69.5h5v-5.4h-5V69.5z"></path><rect x="50" y="46.5" sketch:type="MSShapeGroup" width="6" height="23.4"></rect><path d="M66.5,70.5h-7V57.8h7V70.5z M60.5,69.5h5V58.8h-5V69.5z"></path><path d="M77.3,70.5h-7V59.3h7V70.5z M71.3,69.5h5v-9.1h-5V69.5z"></path><path sketch:type="MSShapeGroup" fill="none" stroke="#000000" d="M0,0"></path></g></g></svg>