<svg xmlns="http://www.w3.org/2000/svg" xmlns:xlink="http://www.w3.org/1999/xlink" version="1.1" x="0px" y="0px" viewBox="0 0 48 48" enable-background="new 0 0 48 48" xml:space="preserve"><g><circle fill="none" stroke="#000000" stroke-width="2" stroke-linecap="round" stroke-linejoin="round" stroke-miterlimit="10" cx="9.683" cy="11.834" r="4.877"></circle><path fill="none" stroke="#000000" stroke-width="2" stroke-linecap="round" stroke-linejoin="round" stroke-miterlimit="10" d="   M9.682,18.917C4.888,18.917,1,23.469,1,29.084h17.367C18.367,23.469,14.479,18.917,9.682,18.917z"></path><g><ellipse fill="none" stroke="#000000" stroke-width="2" stroke-linecap="round" stroke-linejoin="round" stroke-miterlimit="10" cx="40.272" cy="4.794" rx="3.779" ry="3.794"></ellipse><path fill="none" stroke="#000000" stroke-width="2" stroke-linecap="round" stroke-linejoin="round" stroke-miterlimit="10" d="    M40.271,12.094c-3.715,0-6.727,3.526-6.727,7.876H47C47,15.62,43.987,12.094,40.271,12.094z"></path><ellipse fill="none" stroke="#000000" stroke-width="2" stroke-linecap="round" stroke-linejoin="round" stroke-miterlimit="10" cx="40.272" cy="31.825" rx="3.779" ry="3.793"></ellipse><path fill="none" stroke="#000000" stroke-width="2" stroke-linecap="round" stroke-linejoin="round" stroke-miterlimit="10" d="    M40.271,39.123c-3.715,0-6.727,3.527-6.727,7.877H47C47,42.65,43.987,39.123,40.271,39.123z"></path></g><polyline fill="none" stroke="#000000" stroke-width="2" stroke-linecap="round" stroke-linejoin="round" stroke-miterlimit="10" points="   31.891,11.275 25.942,11.275 25.942,38.593 32.221,38.593  "></polyline><line fill="none" stroke="#000000" stroke-width="2" stroke-linecap="round" stroke-linejoin="round" stroke-miterlimit="10" x1="20.104" y1="24" x2="25.942" y2="24"></line></g></svg>